<svg width="54" height="24" viewBox="0 0 54 24" fill="none" xmlns="http://www.w3.org/2000/svg">
<rect width="54" height="24" rx="2" fill="#862626"/>
<path d="M10.6 15.764H20.44V16.592H10.6V15.764ZM15.004 13.448H15.988V16.112H15.004V13.448ZM11.8 7.88H19.216V11.168H12.808V13.34H11.824V10.376H18.232V8.696H11.8V7.88ZM11.824 12.92H19.468V13.736H11.824V12.92ZM22.7071 8.228H29.6911V9.044H22.7071V8.228ZM21.6391 15.524H31.4431V16.352H21.6391V15.524ZM29.1511 8.228H30.1351V9.32C30.1351 9.776 30.1271 10.264 30.1111 10.784C30.1031 11.296 30.0711 11.864 30.0151 12.488C29.9591 13.112 29.8631 13.816 29.7271 14.6L28.7191 14.492C28.8631 13.756 28.9631 13.08 29.0191 12.464C29.0831 11.848 29.1191 11.28 29.1271 10.76C29.1431 10.24 29.1511 9.76 29.1511 9.32V8.228ZM40.5741 7.088H41.5701V15.008H40.5741V7.088ZM34.5981 16.88H41.9061V17.696H34.5981V16.88ZM34.5981 14.204H35.5941V17.156H34.5981V14.204ZM35.7501 7.844C36.2941 7.844 36.7781 7.956 37.2021 8.18C37.6261 8.404 37.9621 8.72 38.2101 9.128C38.4581 9.528 38.5821 9.988 38.5821 10.508C38.5821 11.028 38.4581 11.492 38.2101 11.9C37.9621 12.3 37.6261 12.616 37.2021 12.848C36.7781 13.072 36.2941 13.184 35.7501 13.184C35.2141 13.184 34.7301 13.072 34.2981 12.848C33.8741 12.616 33.5381 12.3 33.2901 11.9C33.0421 11.492 32.9181 11.028 32.9181 10.508C32.9181 9.988 33.0421 9.528 33.2901 9.128C33.5381 8.72 33.8741 8.404 34.2981 8.18C34.7301 7.956 35.2141 7.844 35.7501 7.844ZM35.7501 8.708C35.3981 8.708 35.0821 8.784 34.8021 8.936C34.5221 9.088 34.2981 9.3 34.1301 9.572C33.9701 9.844 33.8901 10.156 33.8901 10.508C33.8901 10.868 33.9701 11.184 34.1301 11.456C34.2981 11.72 34.5221 11.928 34.8021 12.08C35.0821 12.232 35.3981 12.308 35.7501 12.308C36.1021 12.308 36.4181 12.232 36.6981 12.08C36.9861 11.928 37.2101 11.72 37.3701 11.456C37.5301 11.184 37.6101 10.868 37.6101 10.508C37.6101 10.156 37.5301 9.844 37.3701 9.572C37.2101 9.3 36.9861 9.088 36.6981 8.936C36.4181 8.784 36.1021 8.708 35.7501 8.708Z" fill="white"/>
</svg>
