<svg xmlns="http://www.w3.org/2000/svg" width="20" height="16" class="search-icon"><path fill="#b1b1b1" fill-rule="evenodd" d="M9.882 6.07a4.097 4.097 0 0 1 4.094-4.094 4.097 4.097 0 0 1 4.095 4.095 4.097 4.097 0 0 1-4.095 4.094c-2.258-.047-4.094-1.883-4.094-4.094m10.024 0A5.985 5.985 0 0 0 13.929.094C10.682.094 8 2.776 8 6.071a5.985 5.985 0 0 0 5.976 5.976c.565 0 1.083-.094 1.553-.235l1.789 3.953 1.694-.8-1.788-3.953c1.647-1.083 2.682-2.87 2.682-4.941M4 2.965H2.118v2.164H0v1.836h2.118v2.164H4V6.965h2.118V5.129H4z"/></svg>