<?xml version="1.0" encoding="UTF-8"?>
<svg width="226px" height="34px" viewBox="0 0 226 34" version="1.1" xmlns="http://www.w3.org/2000/svg" xmlns:xlink="http://www.w3.org/1999/xlink">
    <!-- Generator: Sketch 51.2 (57519) - http://www.bohemiancoding.com/sketch -->
    <title>Page 1</title>
    <desc>Created with Sketch.</desc>
    <defs></defs>
    <g id="Page-1" stroke="none" stroke-width="1" fill="none" fill-rule="evenodd">
        <g id="Home-Copy-14" transform="translate(-111.000000, -55.000000)" fill="#FC3D3D">
            <g id="Page-1" transform="translate(111.000000, 55.000000)">
                <path d="M21,12.9 C21,8.1 24.9,4.2 29.7,4.2 C34.5,4.2 38.4,8.1 38.4,12.9 C38.4,17.7 34.5,21.6 29.7,21.6 C24.9,21.5 21,17.6 21,12.9 M42.3,12.9 C42.3,5.9 36.6,0.2 29.6,0.2 C22.7,0.2 17,5.9 17,12.9 C17,19.9 22.7,25.6 29.7,25.6 C30.9,25.6 32,25.4 33,25.1 L36.8,33.5 L40.4,31.8 L36.6,23.4 C40.1,21.1 42.3,17.3 42.3,12.9" id="Fill-1"></path>
                <path d="M130.1,15 C132.5,15.9 133.3,17 133.3,18.6 C133.3,20.5 131.6,21.9 129,21.9 C126.3,21.9 124.2,20.7 122.7,18.3 L120,21.1 C121.6,23.7 124.6,25.6 128.7,25.6 C134.2,25.6 137.4,22.4 137.4,18.5 C137.4,15.1 135.6,13.1 131.3,11.3 L128.5,10.2 C125.9,9.2 125.1,8.3 125.1,6.8 C125.1,5.4 126.3,3.9 128.6,3.9 C130.6,3.9 132.3,4.9 133.5,6.6 L136.2,3.8 C134.6,1.9 132.2,0.2 128.8,0.2 C124.5,0.2 121.1,2.6 121.1,6.9 C121.1,10.2 123.1,12.2 126.5,13.6 L130.1,15 Z M155.8,17.7 L155.8,16.3 C155.8,12 153.5,7.5 148,7.5 C143,7.5 140,11.6 140,16.6 C140,21.8 143.5,25.5 148.6,25.5 C152.1,25.5 154.2,23.9 155.7,22 L153,19.5 C152,20.9 150.6,21.9 148.6,21.9 C146,21.9 144.3,20.3 144.1,17.7 L155.8,17.7 Z M148.1,11.2 C150.8,11.2 151.6,13.1 151.7,14.6 L144.4,14.6 C144.6,12.9 145.8,11.2 148.1,11.2 Z M158.6,16.6 C158.6,21.7 162,25.6 167,25.6 C169.2,25.6 170.8,24.8 171.8,24 L171.8,25.3 L175.8,25.3 L175.8,8 L171.9,8 L171.9,9.5 C170.8,8.4 169.4,7.5 167,7.5 C162.1,7.5 158.6,11.4 158.6,16.6 Z M162.7,16.6 C162.7,13.7 164.2,11.2 167.3,11.2 C170.4,11.2 171.9,13.7 171.9,16.6 C171.9,19.5 170.4,22.1 167.3,22.1 C164.2,22.1 162.7,19.4 162.7,16.6 Z M190.2,7.8 L189.4,7.8 C187.1,7.8 185.5,8.3 184.2,9.9 L184.2,8 L180.3,8 L180.3,25.2 L184.3,25.2 L184.3,18.5 C184.3,13.9 185.6,11.6 189.6,11.6 L190.2,11.6 L190.2,7.8 Z M200.5,11.2 C202.3,11.2 203.5,12.2 204.6,13.6 L207.4,10.9 C205.8,8.8 203.5,7.5 200.4,7.5 C195.7,7.5 191.8,11.4 191.8,16.5 C191.8,21.6 195.7,25.5 200.4,25.5 C203.9,25.5 206.3,23.8 207.7,21.8 L205,19.2 C203.8,20.8 202.7,21.9 200.6,21.9 C197.9,21.9 195.9,19.7 195.9,16.5 C195.8,13.4 197.8,11.2 200.5,11.2 Z M214.3,15.6 C214.3,12.9 215.6,11.1 218.1,11.1 C220.3,11.1 221.5,12.7 221.5,15.1 L221.5,25.1 L225.5,25.1 L225.5,15.1 C225.5,10.2 222.6,7.5 218.6,7.5 C216.7,7.5 215.2,8.3 214.3,9.1 L214.3,0.6 L210.3,0.6 L210.3,25.2 L214.3,25.2 L214.3,15.6 Z" id="Fill-3"></path>
                <path d="M63.8,16.1 L67,8.8 L70.3,16 L63.8,16 L63.8,16.1 Z M66.8,0 L55.3,25.1 L59.8,25.1 L62.2,19.9 L71.8,19.9 L74.3,25.1 L78.7,25.1 L67.2,0 L66.8,0 Z" id="Fill-5"></path>
                <path d="M108.6,22 C105.6,22 104,19.4 104,16.5 C104,13.6 105.5,11 108.6,11 C111.7,11 113.2,13.6 113.2,16.5 C113.2,19.4 111.7,22 108.6,22 Z M113.1,0.6 L113.1,9.2 C112.1,8.4 110.5,7.5 108.3,7.5 C103.4,7.5 99.9,11.4 99.9,16.5 C99.9,21.6 103.3,25.5 108.3,25.5 C110.7,25.5 112.1,24.7 113.2,23.6 L113.2,25.1 L117.1,25.1 L117.1,0.6 L113.1,0.6 Z" id="Fill-7"></path>
                <path d="M87.9,22 C84.9,22 83.3,19.4 83.3,16.5 C83.3,13.6 84.8,11 87.9,11 C91,11 92.5,13.6 92.5,16.5 C92.5,19.4 91,22 87.9,22 Z M92.4,9.2 C91.4,8.4 89.8,7.5 87.6,7.5 C82.7,7.5 79.2,11.4 79.2,16.5 C79.2,21.6 82.6,25.5 87.6,25.5 C90,25.5 91.4,24.7 92.5,23.6 L92.5,25.1 L96.4,25.1 L96.4,0.6 L92.4,0.6 L92.4,9.2 Z" id="Fill-9"></path>
                <polygon id="Fill-11" points="8.5 6.3 4.5 6.3 4.5 10.9 0 10.9 0 14.8 4.5 14.8 4.5 19.4 8.5 19.4 8.5 14.8 13 14.8 13 10.9 8.5 10.9"></polygon>
            </g>
        </g>
    </g>
</svg>