<?xml version="1.0" encoding="utf-8"?>
<!-- Generator: Adobe Illustrator 28.0.0, SVG Export Plug-In . SVG Version: 6.00 Build 0)  -->
<svg version="1.1" id="Layer_1" xmlns="http://www.w3.org/2000/svg" xmlns:xlink="http://www.w3.org/1999/xlink" x="0px" y="0px"
	 viewBox="0 0 164.97 169.83" style="enable-background:new 0 0 164.97 169.83;" xml:space="preserve">
<style type="text/css">
	.st0{fill:#FDBC11;}
	.st1{fill-rule:evenodd;clip-rule:evenodd;fill:#0D0116;}
	.st2{fill:url(#SVGID_00000080915485420930722070000003631611009608380559_);}
	.st3{fill:#FFFFFF;}
</style>
<g>
	<path class="st0" d="M82.41,0c28.57,0,45.11,8.48,66.57,26.59v54.82c5.95,1.12,10.56,2.83,15.99,5.38l0,60.99
		c0,7.04-11.79,7.55-15.99,7.86l0.15,14.19H16.02l-0.14-13.7c-5.59-1.36-10.68-3.31-15.88-5.72l0-61
		c0.15-6.58,11.59-7.56,15.88-7.81V26.8C35.52,8.87,55.63,0.01,82.41,0z"/>
	<g>
		<defs>
			<path id="SVGID_1_" d="M38.24,89.6c0,0-1.04-1.1-9.25-3.32c-5.74-1.55-17.66-0.63-21.55,0.87C5.4,87.93,4.33,88.5,4.33,89.6
				v14.18h33.91V89.6z"/>
		</defs>
		
			<linearGradient id="SVGID_00000142140221654469279830000009976603311242328468_" gradientUnits="userSpaceOnUse" x1="4.3262" y1="94.6339" x2="38.2383" y2="94.6339">
			<stop  offset="0" style="stop-color:#0D0116"/>
			<stop  offset="0.35" style="stop-color:#8F0028"/>
			<stop  offset="0.7" style="stop-color:#8F0028"/>
			<stop  offset="1" style="stop-color:#0D0116"/>
		</linearGradient>
		
			<use xlink:href="#SVGID_1_"  style="overflow:visible;fill-rule:evenodd;clip-rule:evenodd;fill:url(#SVGID_00000142140221654469279830000009976603311242328468_);"/>
		<clipPath id="SVGID_00000031895144565337739040000015261476388746285488_">
			<use xlink:href="#SVGID_1_"  style="overflow:visible;"/>
		</clipPath>
	</g>
	<g>
		<defs>
			<path id="SVGID_00000029730672100651574400000005890129709622848178_" d="M126.73,147.74c0,0,1.05,1.1,9.33,3.32
				c5.79,1.54,17.46,0.7,21.74-0.87c2.07-0.75,3.17-0.99,3.17-2.1l-0.13-14.51l-34.11-0.03V147.74z"/>
		</defs>
		
			<linearGradient id="SVGID_00000039115588898060263280000015491778465006140319_" gradientUnits="userSpaceOnUse" x1="126.7344" y1="142.7088" x2="160.9747" y2="142.7088">
			<stop  offset="0" style="stop-color:#0D0116"/>
			<stop  offset="0.35" style="stop-color:#8F0028"/>
			<stop  offset="0.7" style="stop-color:#8F0028"/>
			<stop  offset="1" style="stop-color:#0D0116"/>
		</linearGradient>
		
			<use xlink:href="#SVGID_00000029730672100651574400000005890129709622848178_"  style="overflow:visible;fill-rule:evenodd;clip-rule:evenodd;fill:url(#SVGID_00000039115588898060263280000015491778465006140319_);"/>
		<clipPath id="SVGID_00000151510908234230378470000003091343836138229677_">
			<use xlink:href="#SVGID_00000029730672100651574400000005890129709622848178_"  style="overflow:visible;"/>
		</clipPath>
	</g>
	<path class="st1" d="M19.89,28.65C37.94,12.17,57.75,4.21,82.23,4.2c26.36-0.01,42.47,7.55,62.37,24.34l0.14,137.08H20.04
		L19.89,28.65z"/>
	<g>
		<defs>
			<path id="SVGID_00000056385612005790731240000005888042543574697406_" d="M24.62,30.73l0.14,130.17h115.26l-0.15-130.17
				c-17.9-15.11-33.6-21.81-57.64-21.81C58.21,8.93,39.21,17.41,24.62,30.73z"/>
		</defs>
		
			<linearGradient id="SVGID_00000178198264677607571920000011972769811202918832_" gradientUnits="userSpaceOnUse" x1="82.3189" y1="160.9008" x2="82.3189" y2="8.9233">
			<stop  offset="0" style="stop-color:#FDBC11"/>
			<stop  offset="0.3539" style="stop-color:#FDBC11"/>
			<stop  offset="1" style="stop-color:#FFFFFF"/>
		</linearGradient>
		
			<use xlink:href="#SVGID_00000056385612005790731240000005888042543574697406_"  style="overflow:visible;fill-rule:evenodd;clip-rule:evenodd;fill:url(#SVGID_00000178198264677607571920000011972769811202918832_);"/>
		<clipPath id="SVGID_00000155108285881930754730000017903388007634306974_">
			<use xlink:href="#SVGID_00000056385612005790731240000005888042543574697406_"  style="overflow:visible;"/>
		</clipPath>
	</g>
	<path class="st1" d="M49.42,61.72c-0.32,1.2-0.33,1.77-0.65,2.18v-1.4C48.73,62.04,49.13,61.91,49.42,61.72z"/>
	<path class="st1" d="M25.15,94.37c14-6.23,35.37-10.21,59.32-10.21c23.95,0,45.33,3.98,59.32,10.21
		c-16.06-4.84-36.75-7.76-59.32-7.76C61.9,86.61,41.21,89.53,25.15,94.37z"/>
	<path class="st1" d="M98.5,85.93c-0.42-0.39-0.17-1.11-0.39-1.46c-0.19-0.09-0.34-0.34-0.67-0.44c-0.36-0.28-0.39-0.44-0.24-0.78
		c0.63-1.02,0.34-1.67,0.49-2.62c0.17-1.19,0.17-3.02,0.12-4.24c-0.01-0.52-0.35-0.6-0.56-1.49c-0.21-0.81-0.31-1.62-0.52-2.43
		c-0.06-0.21-0.12-0.68-0.29-0.43c-0.08-0.17-0.19-0.15-0.38,0.52c-0.5,1.65-0.89,2.44-1.78,4.16c-0.57,1.57,0.02,4.05,0.24,5.66
		c0.24,0.69,0.78,1.8,0.83,2.15c0.11,0.76-0.05,0.8,0.28,1.19l-4.87-0.02c-0.23-0.64-0.11-0.39-0.16-0.96
		c-0.12-0.23-0.39-0.29-0.5-0.44c-0.25-0.31-0.19-0.59-0.08-0.82c0.02-0.03,0.05-0.06,0.07-0.09c0.22-0.14,0.35-0.37,0.42-0.66
		c0.24-0.62,0.1-1.49,0.17-2.27c0.35-1.58,0.45-3.58,0.09-5.09c-0.97-2.27-0.42-5.07-1.14-7.72c0.01-0.5-0.11-1.44-0.85-1.36
		c-1.2-0.17-1.78-0.11-2.98-0.14c-1.42,0.17-2.91,0.33-4.24,0.57c-1.24,0.31-2.97,0.5-3.52,0.63c-0.27,0.07-0.75,0.05-1.05,0.08
		c-0.3,0.05-0.69,0.17-1.01,0.45c-0.2,0.17-0.38,0.4-0.5,0.7l0.05,1.33c-0.1,0.13-0.16,0.21-0.21,0.27
		c-0.07,0.06-0.15,0.09-0.31,0.09c-0.17,0-0.41,0.16-0.56,0.34c-0.06,0-0.41,0.11-0.41-0.12c-0.05-0.35-0.03-0.69-0.05-1.07
		c-0.05-0.63-0.44-1.07-1.02-1.68c-1.08-0.84-3.21-1.28-4.24-1.95c-0.25-0.03-3.03-1.57-4.1-1.87c-0.23-0.06-0.39-0.06-0.52,0.03
		c-0.17,0.09-0.29,0.34-0.47,0.8c-0.98,2.05-1.72,3.79-2.28,5.55c-0.98,3.98-0.85,6.68-0.52,9.06c0.08,0.6,0.43,1.5,0.65,2.67
		c0.09,0.11,0.54,1.07,0.91,1.46c0.11,0.11,0.2,0.57,0.5,1.02c0.39,0.61,0.61,0.56,0.85,0.9c0.17,0.28,0.52,0.76,0.57,0.8
		l-6.12-0.02c-0.14-0.31-0.16-0.8-0.08-1.12c0.08-0.38-0.04-0.84-0.57-0.91c-0.43-0.08-0.69-0.21-0.43-0.94
		c0.48-1.65-0.02-3.64-0.32-5.45c-0.31-1.83-0.8-3.98-1.03-4.42c-0.04-0.36-0.56-2-0.66-2.2c-0.24-0.56-0.68-0.34-0.88,0.22
		c-1.23,2.84-1.72,4.1-2.4,7.95l0.09,1.55c0.06,1.41,0.03,1.39,0.14,1.93c0.2,0.76,0.38,1.08,0.6,1.5c0.21,0.36,0.25,0.9,0.32,1.05
		c0.18,0.56,0.44,0.94,0.8,1.42l-5.48,0.73c-0.12-0.79-0.37-1.47-0.09-2.2c0.22-0.66,0-1-0.6-0.95c-0.58-0.21-0.38-0.55-0.19-1
		c0.23-0.43,0.34-0.72,0.41-1.35c0.26-1.32,0.23-2.82,0.28-4.2c0.05-1.54,0.09-3.3-0.06-5.6c-0.31-1.9-0.44-2.44-0.52-3.22
		c-0.1-0.7-0.3-0.38-0.69,0.01c-0.34,0.66-0.57,1.49-0.61,1.99c-0.1,0.51-0.17,0.61-0.31,0.12l-0.17-0.91
		c-0.03-0.31-0.2-0.42-0.36-0.14c-0.06-0.06-0.29,0.83-0.33,0.89c-0.25,0.78-0.25,1.42-0.4,2.11c0,0.26-0.12,0.37-0.21,0.44
		c-0.17-0.06-0.4-0.12-0.62-0.15c-0.56-1.78-0.4-3.41-0.38-4.37c0.03-0.92,0.33-1.45,0.92-3c0.33-1.64,0.91-2.67,1.07-3.18
		c0.33-1.11,0.78-1.37,1.05-2.44c0.3-1.38,0.79-1.81,0.47-2.74c-0.53-1.55-1-4.67-0.3-8.51c0.02-0.17,0.06-0.36,0.08-0.57
		c0.09-0.7,0.11-1.79,0.25-2.53c0.34-2.02,0.62-4.76,2.25-6.63c0.86-0.64,1.19-1.69,2.04-2.63c0.15-0.19,0.55-0.59,1.56-0.88
		C53.4,35.88,54.66,36,55.91,36c4.95,0,13.62,0.17,17.08,0.62c2.41,0.48,7.18,0,8.31-0.02c4.6-0.08,5.45-0.19,7.51-0.42
		c6.39-1.33,5.93-0.48,9.97-1.88c1.17-0.43,2.94-0.89,5.1-1.25c0.85-0.27,1.13-0.11,1.52-0.45c0.22-0.6,0.81-0.89,1.28-1.05
		c0.54,0.19,0.68,0.69,1.62,0.75c2.44-0.36,1.44-0.84,3.93-1.12c0.13-0.02,0.75-0.68,1.11-0.69c0.39-0.03,1.23,0.14,1.36,0.08
		c2.03,0.89,1.12,0.72,1.67,1.03c0.46,0.54,1.21,0.95,1.86,1.39c0.85,0.56,0.91,0.69,1.6,0.19c0.47-0.3,0.88-0.88,2.44-1.35
		c0.65-0.2,1.65-0.16,2.07,0.41c0.14,0.11,0,0.71,0.16,1.03c0,1.07-1.27,1.47-1.77,2.5c-0.11,0.95-1.03,1.15-1.36,1.72
		c-0.15,0.47-0.33,0.61-0.49,0.89c-0.17,0.82-0.34,1.11-0.28,2.02c0.12,0.99,0.48,1.62,0.84,1.88c0.31,0.2,0.99,0.63,0.97,1.26
		c-0.05,0.61-0.16,0.65,0,1.17c0.2,0.77,0.42,1.09,0.19,1.64c-0.22,0.46-1.01,0.93-1.66,1.11c-1.12,0.86-1.35,0.69-3.01,0.92
		c-0.8-0.14-1.85-0.18-2.74,0.19c-1.35,0.57-2.73,0.36-3.51,0.7c-0.74,0.55-1.61,2-1.94,2.87c-0.93,1.91-1.61,3.57-1.9,6.23
		c-0.58,1.62-1,3.96-2.71,5.81c-0.42,1.11-1.15,1.17-1.42,2.83c-0.31,1.17-0.86,3.01-1.25,4.08c-0.16,0.61-0.42,2.04-0.64,2.88
		c-0.75,1.69-1.03,2.17-0.69,4.12c0.13,0.72,0.11,1.8,0.72,4.34c0.17,0.68,0.66,1.06,0.83,1.73c0.17,0.69,0.47,1.08,1.01,1.74
		L98.5,85.93z M48.47,63.22c0.17-0.93,0.39-0.45,0.51-0.09c0.18,0.64,0.14,0.55-0.12,1.8c-0.44,0.83-0.64,1.78-0.48-0.32
		L48.47,63.22L48.47,63.22z"/>
	
		<linearGradient id="SVGID_00000009561025075444597730000006964156882122973351_" gradientUnits="userSpaceOnUse" x1="4.3321" y1="120.3116" x2="160.8956" y2="120.3116">
		<stop  offset="0" style="stop-color:#0D0116"/>
		<stop  offset="0.35" style="stop-color:#8F0028"/>
		<stop  offset="0.7" style="stop-color:#8F0028"/>
		<stop  offset="1" style="stop-color:#0D0116"/>
	</linearGradient>
	<path style="fill:url(#SVGID_00000009561025075444597730000006964156882122973351_);" d="M4.33,148.26
		c8.55,3.95,20.23,6.67,34.15,7.08c23,0.68,45.46-6.64,72.03-10.62c11.03-1.65,33.92-4.18,50.38,3.54V90.54
		c-16.46-7.72-39.35-5.2-50.38-3.54C83.95,90.98,61.48,98.3,38.49,97.62c-13.92-0.42-25.6-3.13-34.15-7.08V148.26z"/>
	<g>
		<path class="st1" d="M88.56,151.05c0.91-0.12,2.4-0.39,3.31-0.51c1.01-0.14,1.94-0.2,2.62,0.15c0.4,0.2,0.7,0.6,0.71,1.1
			c0.02,1.06-1.08,1.64-1.46,1.84c0.39,0.02,1.12,0.05,1.64,0.63c0.36,0.38,0.45,0.81,0.46,1.17c0.02,0.99-0.69,1.67-1.06,1.95
			c-0.39,0.31-1.35,0.75-2.62,0.93l-3.47,0.47L88.56,151.05z M90.53,153.91l0.67-0.09c0.94-0.13,1.99-0.27,1.97-1.45
			c-0.01-0.59-0.29-1.06-1.46-0.9c-0.28,0.04-0.66,0.1-1.21,0.18L90.53,153.91z M90.6,157.59c1.33-0.17,1.87-0.24,2.29-0.43
			c0.68-0.31,0.93-0.81,0.92-1.37c-0.02-1.39-1.35-1.25-2.58-1.08l-0.67,0.09L90.6,157.59z"/>
		<path class="st1" d="M99.13,156.71l-2.15,0.39l-0.04-7.49c0.45-0.09,3.31-0.65,3.63-0.71c1.69-0.3,2.58-0.38,3.38-0.01
			c0.71,0.33,0.88,0.86,0.88,1.33c0,0.88-0.67,1.78-2.29,2.42c0.9,1.3,1.85,2.06,2.45,2.21c0.44,0.11,0.84,0.04,1.1-0.01l0.03,0.06
			l-0.14,0.5c-0.02,0.05-0.03,0.09-0.08,0.12c-0.16,0.1-0.7,0.25-1.13,0.33c-2.09,0.37-3.02-0.63-4.38-2.52
			c-0.46,0.12-0.87,0.19-1.3,0.24L99.13,156.71z M99.11,152.7c1.13-0.18,1.49-0.24,2.04-0.4c1.02-0.31,1.43-0.91,1.43-1.61
			c0-0.78-0.53-1.16-2.22-0.86l-1.27,0.23L99.11,152.7z"/>
		<path class="st1" d="M112.87,146.98l4.14,6.94l-2.34,0.36l-1.12-2.09l-3.76,0.58l-1.12,2.43l-1.87,0.29l4.49-8.27L112.87,146.98z
			 M113.09,151.37l-1.41-2.65l-1.43,3.09L113.09,151.37z"/>
		<path class="st1" d="M119.39,146.19l5.85,4.83l-0.11-5.47l1.44-0.16l-0.02,7.7l-1.18,0.39l-6.15-5.07l0.11,5.56l-1.44,0.16
			l0.05-7.8L119.39,146.19z"/>
		<path class="st1" d="M127.87,145.24c0.85,0.01,2.06-0.06,3.1-0.05l0.56,0c1.38,0.01,5.19,0.05,5.2,3.85
			c0.01,1.86-0.96,3.01-2,3.57c-1.23,0.65-3.33,0.63-4.04,0.62l-2.79-0.03L127.87,145.24z M129.79,152.23l1.46,0.01
			c1.86,0.02,3.48-0.3,3.47-3.03c-0.01-1.86-0.67-3.02-3.39-3.05c-0.48-0.01-0.95,0-1.57,0.01L129.79,152.23z"/>
	</g>
	<g>
		<path class="st1" d="M53.21,19.79c0.08,0.18,0.02,0.3-0.17,0.38c-0.33,0.14-0.44-0.22-1.32-0.93C51.15,18.8,50.7,18.66,49.9,19
			c-0.91,0.38-1.29,1.19-0.94,2.01c0.33,0.79,0.79,0.79,2.95,1.03c1.66,0.17,3.08,0.36,3.59,1.58c0.54,1.27-0.17,3.09-2.65,4.14
			c-0.87,0.37-2.49,0.74-2.7,0.25c-0.84-1.99-0.78-2.13-0.48-2.26c0.39-0.16,0.32,0.21,1.21,0.96c0.76,0.63,1.53,0.79,2.44,0.41
			c1.05-0.44,1.56-1.37,1.19-2.25c-1-2.35-5.55-0.08-6.71-2.79c-0.44-1.05,0.27-2.62,2.14-3.42c1.26-0.53,2.23-0.73,2.4-0.64
			c0.13,0.06,0.18,0.18,0.25,0.35L53.21,19.79z"/>
		<path class="st1" d="M56.93,19.14c-0.11-0.34-0.23-0.39-0.61-0.33c-0.55,0.09-0.67,0.16-0.72,0.02c-0.03-0.09,0.06-0.15,0.22-0.2
			c0.33-0.1,0.64-0.16,1.69-0.48c0.49-0.15,1.1-0.4,1.42-0.5c0.16-0.05,0.23-0.06,0.26,0.02c0.05,0.16-0.07,0.17-0.68,0.44
			c-0.18,0.08-0.28,0.27-0.2,0.52l1.71,5.4c0.11,0.35,0.17,0.34,0.82,0.27c0.35-0.04,0.46-0.1,0.5,0.03c0.02,0.06,0,0.14-0.23,0.22
			c-0.24,0.08-0.63,0.15-1.49,0.42c-1.19,0.38-1.42,0.5-1.68,0.58c-0.14,0.05-0.21,0.02-0.24-0.08c-0.03-0.09,0.1-0.18,0.34-0.28
			c0.59-0.25,0.68-0.38,0.53-0.84L56.93,19.14z"/>
		<path class="st1" d="M68.45,22.68c0.04,0.2-0.06,0.28-0.21,0.31c-0.18,0.04-0.27-0.06-0.41-0.17l-5.05-4.47
			c-0.19-0.17-0.25-0.24-0.29-0.23c-0.04,0.01-0.04,0.04,0.01,0.25l0.93,4.26c0.12,0.55,0.23,0.78,0.87,0.74
			c0.29-0.02,0.52-0.08,0.55,0.07c0.01,0.06,0.03,0.13-0.15,0.17c-0.36,0.08-0.78,0.13-1.23,0.22c-0.41,0.09-0.63,0.19-0.94,0.25
			c-0.22,0.05-0.33,0.05-0.36-0.08c-0.02-0.08,0.06-0.16,0.36-0.25c0.54-0.15,0.64-0.3,0.42-1.33l-1.05-4.82
			c-0.08-0.36-0.17-0.36-0.6-0.34c-0.33,0.01-0.44,0-0.47-0.09c-0.02-0.08,0.04-0.15,0.25-0.19c0.15-0.03,0.27-0.03,0.89-0.16
			c0.5-0.11,0.64-0.17,0.77-0.2c0.19-0.04,0.3,0.12,0.69,0.47l3.82,3.49c0.14,0.12,0.25,0.21,0.28,0.21
			c0.07-0.02,0.07-0.04,0.02-0.24L66.8,17.1c-0.17-0.75-0.38-0.88-0.84-0.83c-0.27,0.02-0.43,0.09-0.46-0.06
			c-0.03-0.13,0.11-0.19,0.27-0.22c0.19-0.04,0.4-0.04,0.99-0.17c0.51-0.11,0.61-0.18,0.84-0.23c0.18-0.04,0.25,0,0.26,0.08
			c0.03,0.14-0.1,0.19-0.36,0.27c-0.39,0.12-0.47,0.34-0.41,0.6L68.45,22.68z"/>
		<path class="st1" d="M74.17,21.86c0.54-0.06,1.06-0.36,1.26-1.34c0.23-1.06,0.25-1.09,0.4-1.1c0.25-0.03,0.29-0.01,0.43,1.24
			c0.07,0.59,0.04,0.75-0.12,0.9c-0.19,0.17-0.98,0.52-1.97,0.63c-2.36,0.27-4-1.32-4.23-3.32c-0.26-2.29,1.26-3.91,3.36-4.14
			c0.77-0.09,1.43-0.05,1.9,0.12c0.17,0.06,0.19,0.08,0.28,0.88c0.1,0.84,0.07,0.89-0.18,0.92c-0.13,0.01-0.25-0.09-0.62-0.69
			c-0.54-0.87-0.91-0.95-1.41-0.89c-1.34,0.15-1.99,1.24-1.72,3.59C71.83,21,73.03,21.99,74.17,21.86z"/>
		<path class="st1" d="M78.3,15.19c-0.01-0.29-0.11-0.37-0.56-0.41c-0.29-0.03-0.42-0.01-0.43-0.16c0-0.13,0.12-0.15,0.43-0.16
			c0.13,0,0.48,0.03,2.38-0.02c1.58-0.05,2.28-0.11,2.71-0.12c0.27-0.01,0.34,0.04,0.35,0.21l0.04,1.45c0,0.15-0.05,0.21-0.16,0.21
			c-0.24,0.01-0.15-0.05-0.51-0.62c-0.43-0.68-0.85-0.89-2-0.85c-0.72,0.02-0.79,0.06-0.79,0.33l0.07,2.32
			c0.01,0.16,0.04,0.2,0.41,0.2c1.25-0.04,1.31-0.05,1.56-0.48c0.23-0.38,0.21-0.53,0.4-0.54c0.14,0,0.18,0.05,0.19,0.2
			c0.01,0.24-0.04,0.63-0.03,0.98c0.01,0.43,0.08,0.73,0.09,0.96c0.01,0.21-0.02,0.32-0.2,0.33c-0.23,0-0.23-0.22-0.41-0.62
			c-0.23-0.52-0.29-0.55-1.33-0.52c-0.6,0.02-0.66,0.03-0.65,0.22l0.06,2.18c0.02,0.82,0.21,1.06,1.23,1.03
			c0.99-0.03,1.46-0.36,1.83-1.17c0.28-0.61,0.27-0.66,0.42-0.66c0.14,0,0.17,0.03,0.17,0.26l0.05,1.62c0,0.16-0.05,0.21-0.35,0.21
			c-0.41,0.01-1.13-0.01-2.66,0.03c-1.69,0.05-2.13,0.11-2.85,0.13c-0.27,0.01-0.32-0.05-0.32-0.13c0-0.12,0.04-0.16,0.25-0.19
			c0.64-0.1,0.79-0.2,0.78-0.55L78.3,15.19z"/>
		<path class="st1" d="M92.95,20.92c-0.05,0.56,0.05,0.75,0.6,0.84c0.49,0.09,0.56,0.11,0.55,0.23c-0.01,0.1-0.09,0.13-0.27,0.12
			c-0.18-0.02-1.11-0.15-1.67-0.19c-0.62-0.05-1.53-0.09-1.9-0.12c-0.09-0.01-0.16-0.07-0.15-0.16c0.01-0.13,0.13-0.14,0.4-0.14
			c0.63,0,0.92-0.17,0.95-0.49l0.44-5.05c0.03-0.36-0.09-0.47-0.32-0.49c-0.22-0.02-0.73,0.14-0.96,0.12
			c-0.07-0.01-0.13-0.06-0.12-0.1c0.01-0.15,0.2-0.1,1.05-0.32c1.57-0.42,1.7-0.52,1.84-0.51c0.08,0.01,0.1,0.03,0.09,0.11
			L92.95,20.92z"/>
		<path class="st1" d="M100.18,15.59c1.81,0.33,2.86,1.9,2.5,3.84c-0.29,1.56-1.53,2.81-2.79,3.45c-1.29,0.66-2.98,0.95-3.66,0.83
			c-0.09-0.02-0.14-0.06-0.13-0.13c0.02-0.09,0.19-0.05,1-0.17c2.16-0.31,3.7-1.91,4.11-4.15c0.35-1.96-0.2-3.25-1.23-3.44
			c-0.71-0.13-1.39,0.5-1.59,1.63c-0.23,1.26,0.16,2.38,0.98,2.54c0.59,0.11,0.68-0.21,0.92-0.17c0.09,0.02,0.12,0.07,0.11,0.14
			c-0.02,0.09-0.52,0.59-1.62,0.39c-1.17-0.21-2.03-1.23-1.77-2.68C97.25,16.29,98.64,15.31,100.18,15.59z"/>
		<path class="st1" d="M106.99,18.37c-1.35-0.4-1.39-0.27-1.49-0.3c-0.07-0.02-0.07-0.09-0.03-0.21c0.07-0.25,0.17-0.52,0.25-0.81
			c0.05-0.16,0.14-0.16,0.34-0.1c0.7,0.21,1.71,0.6,2.65,0.88c0.71,0.21,1.64,0.39,2.11,0.53c0.11,0.03,0.18,0.13,0.15,0.22
			c-0.02,0.09-0.39,0.36-5.01,5.51c-0.72,0.81-0.72,0.9-0.95,0.83c-0.17-0.05-0.24-0.1-0.21-0.2c0.06-0.2,4.73-5.21,4.77-5.34
			c0.05-0.19,0.01-0.25-0.54-0.41L106.99,18.37z"/>
		<path class="st1" d="M112.92,27.16c-1.84-0.78-2.37-2.08-1.99-2.97c0.36-0.83,1.62-0.8,2.57-0.89c-0.71-0.83-1.18-1.54-0.81-2.41
			c0.4-0.94,1.73-1.26,3.22-0.62c1.54,0.66,2.12,1.65,1.76,2.48c-0.33,0.77-1.45,0.71-2.32,0.81c0.75,0.83,1.58,1.76,1.1,2.88
			C115.97,27.55,114.41,27.8,112.92,27.16z M113.01,26.91c0.98,0.42,1.9,0.22,2.24-0.57c0.4-0.93-0.75-1.86-1.44-2.66
			c-0.95,0.1-1.47,0.35-1.78,1.08C111.71,25.48,111.97,26.46,113.01,26.91z M115.02,23.25c0.96-0.08,1.41-0.28,1.66-0.87
			c0.3-0.69-0.06-1.5-0.91-1.87c-0.79-0.34-1.62-0.15-1.87,0.44C113.53,21.81,114.28,22.53,115.02,23.25z"/>
	</g>
	<g>
		<path class="st3" d="M156.7,124.21c0,2.12-1.77,3.74-3.85,3.74c-2.1,0-3.86-1.64-3.86-3.74c0-2.17,1.83-3.75,3.86-3.75
			C154.85,120.46,156.7,122.03,156.7,124.21z M149.82,124.22c0,1.61,1.28,3.04,3.03,3.04c1.73,0,3.02-1.43,3.02-3.04
			c0-1.66-1.34-3-3.02-3C151.16,121.22,149.82,122.55,149.82,124.22z M154.91,125.79l-0.06,0.3c-0.02,0.12-0.45,0.12-0.58,0.12
			c-0.85,0-1.28-0.64-1.81-1.73c-0.06-0.01-0.31-0.01-0.37-0.01v1.67h-0.99v-4.08c0.1-0.01,1.43-0.03,1.5-0.03
			c0.74,0,1.12,0.05,1.45,0.32c0.33,0.26,0.39,0.58,0.39,0.81c0,0.81-0.76,1.05-0.99,1.13c0.32,0.67,0.67,1.11,0.86,1.28
			c0.07,0.03,0.28,0.21,0.6,0.19L154.91,125.79z M152.09,123.92c0.59,0.04,1.29,0.06,1.29-0.71c0-0.46-0.3-0.59-0.6-0.63h-0.69
			V123.92z"/>
	</g>
	<path class="st3" d="M23.15,106.31c1.8-0.89,3.91-0.9,6.01-0.64c0.96,0.12,1.74,0.27,2.73,0.47c0.33,0.07,0.88,0.22,1.21,0.26
		c0.18,0.02,0.25-0.02,0.43-0.08c0.08-0.05,0.25-0.03,0.28-0.02c0.45,0.06,0.46,0.16,0.46,0.27c0,0.16-0.22,2.33-0.23,2.76
		c-0.02,0.35-0.09,2.07-0.14,2.23c-0.05,0.13-0.15,0.14-0.53,0.1c-0.48-0.06-0.53-0.06-0.61-0.54c-0.08-0.61-0.23-1.57-0.46-1.98
		c-0.73-1.36-2.9-1.71-3.83-1.82c-2.29-0.28-3.52,0.35-4.23,1.26c-0.69,0.91-1.3,2.3-1.26,4.93c0.09,5.42,2.77,8.1,5.88,8.49
		c0.71,0.09,3.18,0.37,4.27-2.29c0.32-0.77,0.34-0.85,0.52-0.83c0.05,0.01,0.88,0.16,0.89,0.54c0,0-0.65,3.6-0.82,3.76
		c-0.18,0.17-2.99,0.53-5.43,0.22c-6.35-0.78-9.12-5.37-9.19-9.92C19,109.73,20.71,107.5,23.15,106.31z"/>
	<path class="st3" d="M37.78,108.59c-0.09-1.13-0.51-1.31-1.27-1.32c-0.32,0-0.32,0-0.32-0.53c0-0.54,0.04-0.54,0.4-0.55
		c0.36-0.01,1.32,0.01,2.29-0.01c0.96,0.01,1.93,0.02,2.25,0.01c1-0.02,2.01-0.06,2.93-0.11c0.94-0.01,1.85-0.06,2.63-0.07
		c0.24,0,0.24,0.21,0.24,0.48c0,0.32-0.12,1.05-0.17,2.27c-0.02,0.43-0.08,1.08-0.07,1.43c0,0.27-0.1,0.33-0.44,0.33
		c-0.32,0.01-0.4-0.07-0.42-0.32c-0.23-2.29-0.28-2.74-3.26-2.69c-0.38,0.01-1.57,0.03-1.75,0.3c-0.12,0.17-0.14,0.73-0.14,1.14
		c-0.01,1.51,0,3.23,0.03,4.74c3.71-0.04,3.93-0.26,4.04-1.53c0.08-0.73,0.08-0.73,0.5-0.74c0.18,0,0.38,0.07,0.38,0.26
		c0,0.4-0.03,2.02-0.02,2.34c0,0.46,0.05,2.53,0.06,2.94c0,0.35-0.1,0.4-0.36,0.41c-0.24,0-0.4,0-0.42-0.34
		c-0.11-1-0.17-1.5-0.77-1.74c-0.69-0.26-1.57-0.24-3.43-0.21c0,0.95,0.03,4.37,0.09,5.22c0.04,0.94,0.09,1.43,1.61,1.4
		c3.19-0.06,3.34-0.82,4.07-3.47c0.06-0.22,0.32-0.22,0.54-0.12c0.2,0.08,0.36,0.24,0.36,0.4c0,0.38-0.29,2.19-0.71,4.27
		c-0.04,0.22-0.16,0.41-0.38,0.41c-0.32,0-1.46,0-2.73-0.01c-1.26,0.03-2.69,0.02-3.59,0.04c-0.82,0.01-1.52,0.05-2.1,0.06
		c-0.58,0.04-1.04,0.07-1.41,0.08c-0.24,0.01-0.24-0.05-0.25-0.5c0-0.51,0.04-0.54,0.52-0.6c1.02-0.12,1.1-0.83,1.15-1.8
		c0.07-1.3,0.05-4.66,0.04-6.25C37.87,110.47,37.84,109.28,37.78,108.59z"/>
	<path class="st3" d="M58.87,113.69c0.79,1.56,2.14,3.91,2.97,4.88c1.27,1.49,2.12,1.41,2.54,1.36c0.2-0.02,0.24-0.03,0.25,0.38
		c0,0.41,0,0.46-0.26,0.59c-0.33,0.16-0.94,0.43-1.7,0.51c-2.4,0.24-3.66-1.55-4.06-2.13c-0.99-1.39-1.83-3.07-2.38-4.65
		c-0.79,0.16-1.22,0.17-1.86,0.21c0.03,1.41,0.03,2.07,0.03,3c0.02,2.71,0.15,3.01,1.74,2.85c0.28-0.03,0.33,0.12,0.33,0.53
		c0,0.28,0,0.46-0.22,0.48c-0.28,0.03-2.66,0.24-3.41,0.32c-1.39,0.14-2.77,0.31-3.14,0.34c-0.18,0.02-0.18-0.26-0.18-0.52
		c0-0.36,0.04-0.47,0.54-0.57c1.22-0.31,1.26-1.36,1.28-2.44c0.08-2.01,0.07-5.06,0.05-7.08c0-0.95-0.01-3.46-0.19-4.08
		c-0.2-0.65-0.48-0.64-1.42-0.65c-0.28,0-0.28-0.05-0.28-0.51c0-0.49,0.19-0.51,0.43-0.53l2.16-0.19c2.27-0.2,4.19-0.6,5-0.68
		c3.04-0.31,4.57,1.44,4.58,3.84C61.7,112.2,59.45,113.37,58.87,113.69z M54.38,113.58c0.26,0.02,0.5,0.03,1.03-0.03
		c1.44-0.14,2.97-0.4,2.96-3.66c-0.01-3.69-2.09-3.48-3.14-3.38c-0.81,0.08-0.83,0.26-0.85,0.91L54.38,113.58z"/>
	<path class="st3" d="M72.12,108.31c-0.01,2.63-0.01,5.56,0.01,6.73c0.04,2.58,0.07,2.7,1.92,2.4c0.31-0.03,0.31,0.18,0.31,0.46
		c0,0.37,0.04,0.87-0.21,0.91c-0.23,0.04-1.15,0.18-1.7,0.26c-0.57,0.11-1.31,0.22-2.34,0.42c-0.72,0.13-1.35,0.28-1.93,0.39
		c-0.58,0.13-1.09,0.26-1.52,0.34c-0.16,0.03-0.16-0.18-0.16-0.54c0-0.26,0.02-0.47,0.21-0.54c1.38-0.41,1.65-0.53,1.78-2.2
		c0.06-1.03,0.1-5.73,0.1-6.96c0-0.94-0.03-4.01-0.05-5.1c-3.49,0.73-3.86,0.51-4.27,2.5c-0.16,0.76-0.16,0.84-0.47,0.9
		c-0.43,0.08-0.6,0.11-0.59-0.18c0-0.05,0.33-2.95,0.37-3.43c0.06-0.64,0.11-0.88,0.37-0.93c0.23-0.04,0.29,0.08,0.55,0.11
		c0.58,0.07,4.78-0.76,5.66-0.93c0.49-0.09,6.03-0.91,6.54-1.3c0.13-0.07,0.31-0.16,0.39-0.17c0.15-0.03,0.23,0.03,0.23,0.19
		c0,0.16-0.09,1.73-0.13,2.31c-0.02,0.45-0.16,1.03-0.25,1.31c-0.06,0.25-0.16,0.29-0.51,0.35c-0.29,0.05-0.45,0.09-0.45-0.31
		c-0.06-1.97-0.87-1.37-1.48-1.34c-0.57,0.03-1.62,0.2-2.34,0.35L72.12,108.31z"/>
	<path class="st3" d="M80.45,102.64c-0.18-0.67-0.38-0.62-1.6-0.46c-0.3,0.04-0.3-0.02-0.3-0.51c0-0.49,0.06-0.53,0.34-0.59
		c0.48-0.1,1.7-0.31,3.08-0.59c1.02-0.22,2.26-0.54,2.86-0.66l0.38-0.08c0.22-0.04,0.24,0.08,0.24,0.32c0,0.65,0,0.7-0.46,0.85
		c-1.04,0.3-1.38,0.63-1.52,1.95c-0.08,0.82-0.06,3.83-0.06,4.97c0.01,3.32,0.04,5.65,0.14,6.58c0.1,0.71,0.25,1.12,1.07,1
		l0.62-0.13c0.2-0.04,0.22,0.01,0.22,0.4c0,0.49,0,0.57-0.2,0.61c-0.58,0.12-2.42,0.46-3.64,0.71c-1.1,0.23-1.98,0.47-2.8,0.65
		c-0.14,0.03-0.22-0.03-0.22-0.5c0-0.44,0.06-0.48,0.6-0.64c1.08-0.33,1.34-1.01,1.37-2.62c0.07-1.89,0.06-5.23,0.05-7.17
		C80.62,105.74,80.61,103.26,80.45,102.64z"/>
	<path class="st3" d="M92.24,105.82c0.52-0.1,2.7-0.54,3.21-1.1c0.29-0.31,0.31-0.57,0.38-1.44c0.01-0.34,0.09-0.41,0.34-0.45
		c0.31-0.06,0.44-0.04,0.45,0.22c0,0.36-0.05,1.63-0.04,2.53c0.01,0.82,0.07,2.07,0.08,2.56c0,0.31-0.13,0.36-0.35,0.4
		c-0.4,0.08-0.44,0.09-0.49-0.29c-0.12-1.65-0.13-1.8-3.6-1.11c0.05,3.36,0.05,3.72,0.09,4.45c0.09,1.42,0.11,2.04,1.06,1.93
		c0.34-0.04,0.54-0.08,0.77-0.13c0.13-0.03,0.17,0.12,0.18,0.4c0,0.31,0.01,0.59-0.17,0.62c-0.7,0.14-2.39,0.43-3.2,0.59
		c-1.38,0.27-2.47,0.54-2.87,0.62c-0.14,0.03-0.16-0.15-0.16-0.48c0-0.44,0.04-0.44,0.38-0.61c1.04-0.46,1.19-0.83,1.21-2.99
		c0.03-1.39,0.02-5.46,0-7.18c-0.01-1.97-0.04-3.02-0.18-3.56c-0.16-0.59-0.55-0.64-1.05-0.57c-0.44,0.06-0.48,0.07-0.49-0.21
		c0-0.67,0-0.74,0.29-0.8c0.52-0.11,1.89-0.35,3.26-0.62c1.37-0.25,2.74-0.49,3.18-0.58c0.56-0.11,3.05-0.66,3.49-0.75
		c0.19-0.04,0.21,0.04,0.21,0.14c0,0.23-0.18,2.07-0.28,3.79c-0.02,0.54-0.05,0.63-0.46,0.71c-0.42,0.08-0.46,0.01-0.51-0.41
		c-0.25-1.83-0.27-1.95-0.79-2.08c-0.68-0.17-1.87-0.02-2.6,0.13c-1.27,0.25-1.41,0.41-1.4,1.02L92.24,105.82z"/>
	<path class="st3" d="M102.74,98.21c-0.17-0.69-0.35-0.66-1.5-0.56c-0.28,0.02-0.28-0.03-0.28-0.53c0-0.51,0.06-0.54,0.32-0.59
		c0.45-0.08,1.59-0.23,2.89-0.46c0.95-0.17,2.12-0.43,2.68-0.52l0.36-0.06c0.21-0.04,0.22,0.09,0.22,0.33c0,0.67,0,0.72-0.43,0.85
		c-0.98,0.25-1.29,0.57-1.43,1.93c-0.08,0.84-0.09,3.93-0.09,5.1c-0.01,3.41,0,5.8,0.08,6.77c0.1,0.73,0.22,1.16,0.99,1.08l0.58-0.1
		c0.19-0.03,0.2,0.02,0.2,0.42c0,0.5,0,0.58-0.19,0.62c-0.54,0.09-2.27,0.34-3.41,0.54c-1.03,0.18-1.86,0.38-2.62,0.52
		c-0.13,0.02-0.21-0.05-0.2-0.53c0-0.45,0.06-0.49,0.56-0.63c1.01-0.29,1.26-0.96,1.3-2.62c0.08-1.93,0.1-5.37,0.1-7.36
		C102.88,101.41,102.89,98.85,102.74,98.21z"/>
	<path class="st3" d="M111.71,97.21c-0.09-1.09-0.5-1.25-1.22-1.21c-0.31,0.03-0.31,0.03-0.31-0.5c-0.01-0.53,0.03-0.53,0.38-0.56
		c0.34-0.03,1.2-0.14,2.13-0.22c0.89-0.08,1.9-0.18,2.2-0.2c0.95-0.09,1.91-0.19,2.78-0.3c0.89-0.08,1.75-0.19,2.49-0.25
		c0.23-0.02,0.23,0.19,0.23,0.45c0,0.31-0.12,1.16-0.17,2.35c-0.01,0.42-0.06,1.06-0.06,1.4c0,0.26-0.09,0.32-0.42,0.35
		c-0.31,0.03-0.38-0.04-0.4-0.28c-0.24-2.22-0.28-2.66-3.12-2.41c-0.36,0.03-1.48,0.13-1.65,0.41c-0.11,0.17-0.13,0.72-0.12,1.12
		c0,1.47,0.02,3.16,0.06,4.63c3.52-0.28,3.73-0.51,3.83-1.76c0.07-0.72,0.07-0.72,0.47-0.75c0.17-0.02,0.36,0.04,0.36,0.23
		c0.01,0.39-0.01,1.97-0.01,2.29c0.01,0.45,0.07,2.47,0.07,2.86c0.01,0.34-0.09,0.4-0.33,0.42c-0.23,0.02-0.38,0.04-0.41-0.31
		c-0.11-0.96-0.17-1.46-0.74-1.64c-0.65-0.2-1.49-0.13-3.26,0.03c0.01,0.92,0.05,4.26,0.12,5.09c0.05,0.92,0.09,1.39,1.54,1.26
		c3.03-0.27,3.17-1.02,3.84-3.66c0.05-0.21,0.3-0.24,0.51-0.15c0.19,0.06,0.34,0.21,0.34,0.36c0.01,0.37-0.25,2.16-0.65,4.22
		c-0.04,0.21-0.15,0.41-0.36,0.42c-0.3,0.03-1.39,0.1-2.59,0.18c-1.2,0.11-2.55,0.2-3.41,0.27c-0.78,0.07-1.45,0.15-2,0.21
		c-0.55,0.07-0.99,0.14-1.33,0.17c-0.23,0.02-0.23-0.03-0.23-0.48c-0.01-0.5,0.03-0.53,0.49-0.62c0.97-0.19,1.04-0.88,1.08-1.83
		c0.06-1.27,0.02-4.56,0-6.11C111.8,99.04,111.77,97.89,111.71,97.21z"/>
	<path class="st3" d="M134.59,109.73c-1.56,0.43-3.17,0.49-4.66,0.48c-1.1-0.01-3.17-0.09-3.98-0.09c-0.86-0.01-2.54,0.03-2.9,0
		c-0.26,0-0.26-0.21-0.26-0.47c0-0.47,0-0.5,0.41-0.57c1.13-0.17,1.65-0.27,1.73-2.37c0.1-1.99,0.12-5.1,0.12-7.2
		c0.01-2.51-0.01-3.04-0.08-3.69c-0.11-1.18-0.55-1.24-1.67-1.35c-0.31-0.03-0.31-0.08-0.31-0.55c0-0.31,0-0.58,0.22-0.58
		c0.17,0,0.36,0.03,0.69,0.06c0.31,0.03,0.77,0.06,1.44,0.07c0.77,0.01,2.18,0,3.48-0.02c1.32-0.02,2.54-0.03,2.95-0.03
		c5.08,0.05,7.84,2.7,7.82,8.04C139.56,108.01,135.57,109.48,134.59,109.73z M134.35,95.8c-0.67-0.53-1.72-1.12-3.86-1.14
		c-1.75-0.02-1.9,0.45-2,1.32c-0.07,0.81-0.09,6.25-0.1,7.56c0,0.84,0.01,3.72,0.17,4.4c0.17,0.73,1,0.95,2.04,0.96
		c1.13,0.01,2.25-0.21,3.22-0.88c1.8-1.24,2.63-3.43,2.64-6.41C136.47,100.27,136.27,97.37,134.35,95.8z"/>
	<path class="st3" d="M19.51,127.87c0.18,0.04,0.22,0.29,0.26,0.64c0.31,2.04,0.96,4.76,1.54,7.33c0.86,3.89,1.16,5.14,1.81,7.9
		c0.3,1.3,0.78,1.4,1.53,1.79c0.22,0.08,0.2,0.31,0.17,0.64c-0.03,0.42-0.05,0.58-0.27,0.53c-1.04-0.21-1.99-0.37-3.02-0.55
		c-0.84-0.15-1.86-0.33-3-0.59c-0.35-0.08-0.36-0.26-0.34-0.54c0.04-0.48,0.05-0.67,0.34-0.63c0.67,0.08,1.25,0.08,1.31-0.64
		c0.04-0.48-0.57-3.48-0.75-4.33c-1.19-0.32-4.12-1.06-5.07-1.27c-0.46,1.17-1.31,3.12-1.37,3.77c-0.06,0.78,0.63,1.12,1.27,1.32
		c0.48,0.15,0.48,0.15,0.43,0.74c-0.02,0.28-0.04,0.53-0.29,0.47c-0.98-0.22-1.83-0.49-2.74-0.8c-0.57-0.2-1.47-0.54-1.84-0.69
		c-0.24-0.09-0.33-0.14-0.29-0.53c0.03-0.36,0.05-0.65,0.3-0.64c0.88-0.04,1.23-0.52,3.21-4.37c0.86-1.73,3.24-5.84,4.14-8.04
		c0.58-1.4,0.6-1.65,0.83-1.65C18.95,127.76,19.26,127.81,19.51,127.87z M14.53,137.02c1.43,0.42,2.86,0.78,4.3,1.08
		c-0.62-2.92-1.27-6.21-1.46-7.25C16.57,132.56,15.3,135.3,14.53,137.02z"/>
	<path class="st3" d="M39.56,136.28c-0.07-1-0.18-3.48-0.46-4.17c-0.21-0.56-0.6-0.75-1.87-0.82c-0.3-0.03-0.3-0.06-0.32-0.56
		c-0.01-0.26,0.05-0.43,0.34-0.43c0.45,0.01,2.51-0.04,2.92-0.04c0.45,0,2.45-0.14,2.83-0.14c0.25,0,0.25,0.08,0.28,0.54
		c0.02,0.41,0.02,0.46-0.18,0.48c-1.39,0.18-1.95,0.52-1.97,2.84c0.01,1.17,0.11,6.79,0.26,9.8c0.03,0.59,0.13,2.04,0.17,2.68
		l0.01,0.15c0.01,0.18-0.23,0.25-1.03,0.65c-0.13,0.07-0.21-0.03-0.32-0.18c-1.4-1.88-2.14-2.66-4.69-5.56
		c-0.48-0.54-3.61-4.21-4.73-5.52c-0.17-0.18-0.6-0.65-1.05-1.22c0.01,1.07,0.1,3.01,0.14,3.75c0.31,6.43,0.44,7.34,1.38,7.58
		c0.23,0.06,1.22,0.25,1.43,0.35c0.09,0.05,0.16,0.38,0.17,0.56c0.01,0.31,0,0.46-0.25,0.46c-0.5-0.01-1.94-0.17-3.17-0.34
		c-0.67-0.09-1.61-0.2-2.81-0.35c-0.16-0.02-0.27-0.05-0.29-0.39c-0.02-0.41,0.11-0.64,0.34-0.66c1.37-0.13,1.6-0.31,1.67-2.68
		c0.05-1.3-0.15-8.61-0.16-8.97c-0.1-1.94-0.64-2.71-2.07-2.88c-0.18-0.03-0.32-0.08-0.34-0.51c-0.03-0.46,0.11-0.58,0.33-0.58
		c0.38,0,1.36,0.07,2.04,0.13c0.86,0.08,1.29,0.19,1.93,0.25c0.25,0.03,0.47,0.01,0.6,0.27c0.47,0.9,1.62,2.24,3.2,4.05
		c0.93,1.08,5.08,5.73,5.94,6.69L39.56,136.28z"/>
	<path class="st3" d="M47.41,131.08c2.3-1.7,4.91-2.11,5.96-2.19c0.96-0.08,2.51,0.01,2.79,0.04c0.62,0.05,0.69,0.05,0.78,0.04
		c0.14-0.01,0.14-0.01,0.39-0.19c0.12-0.06,0.26-0.07,0.32-0.08c0.3-0.02,0.36,0.08,0.37,0.41c0.04,0.83,0.08,1.72,0.16,2.52
		c0.04,0.36,0.16,1.11,0.18,1.58c0.01,0.23-0.05,0.32-0.76,0.38c-0.21,0.01-0.29-0.21-0.4-0.59c-0.36-1.25-0.8-2.73-4.31-2.46
		c-3.88,0.31-5.37,3.48-5.2,7.43c0.04,0.78,0.24,3.4,1.53,5.03c1.31,1.62,3.34,1.74,4.48,1.65c0.59-0.04,1.91-0.23,2.1-0.82
		c0.1-0.37,0.04-1.78,0.02-2.3c-0.1-2.42-0.18-2.65-0.4-2.89c-0.15-0.17-0.34-0.29-1.82-0.25c-0.23,0.02-0.38-0.02-0.39-0.41
		c-0.02-0.39-0.03-0.6,0.3-0.62c0.64-0.05,1.48-0.04,3.66-0.21c1.52-0.12,2.52-0.28,2.95-0.31c0.16-0.01,0.24,0.08,0.25,0.42
		c0.01,0.31,0.02,0.57-0.18,0.64c-1.2,0.43-1.25,0.44-1.13,3.27c0.03,0.65,0.11,1.9,0.18,2.62c0.04,0.23,0.1,0.78,0.12,1.04
		c0.01,0.24-0.22,0.3-0.64,0.41c-1.34,0.32-3.42,0.71-5.2,0.86c-2.78,0.22-4.42,0.09-5.78-0.62c-2.45-1.27-3.42-4.2-3.52-6.57
		C44.09,136.06,45.18,132.77,47.41,131.08z"/>
	<path class="st3" d="M73.79,138.77c0.23-0.95,0.29-2.02,0.2-8.3c-0.04-2.91-0.25-3.09-1.89-2.99c-0.42,0-0.43,0-0.42-0.47
		c0.01-0.38,0.17-0.43,0.45-0.47c0.33-0.05,1.73-0.42,3.24-0.73c0.8-0.17,1.7-0.42,2.25-0.5c0.24-0.03,0.29,0.09,0.29,0.46
		c0,0.53-0.1,0.59-0.34,0.66c-1.66,0.47-1.64,0.4-1.65,5.25c-0.01,4.68,0.07,6.12-0.4,7.8c-0.92,3.3-3.57,4.51-5.62,4.79
		c-2.92,0.4-5.79-0.48-6.27-3.46c-0.16-1.04-0.55-2.14-0.58-7.26c-0.01-2.01-0.02-2.74-0.07-3.29c-0.1-1.17-0.62-1.13-1.46-1.09
		c-0.24,0.01-0.24-0.07-0.24-0.49c0-0.43,0.06-0.54,0.26-0.56c1.07-0.15,2.15-0.25,3.24-0.4c1.05-0.15,2.28-0.4,3.34-0.55
		c0.35-0.04,0.39,0.03,0.4,0.4c0,0.61-0.04,0.64-0.41,0.72c-1.05,0.25-1.58,0.37-1.7,1.32c-0.13,0.84-0.09,5.28-0.08,6.46
		c0.02,2.85,0.5,4.23,1.22,5.09c0.62,0.73,1.9,0.9,2.88,0.76C71.01,141.82,73.17,141.27,73.79,138.77z"/>
	<path class="st3" d="M88.48,125.48c0.09,0.92,0.08,1.82,0.1,2.05c0.04,0.39-0.49,0.57-0.69,0.61c-0.26,0.05-0.29-0.05-0.54-0.83
		c-0.31-0.93-1.12-2.39-3.5-1.95c-2.19,0.4-2.1,2.32-2.06,2.69c0.15,1.52,1.55,1.69,2.55,2.02c2.8,0.93,3.6,1.18,4.51,2.05
		c0.8,0.81,1.08,1.88,1.16,2.69c0.15,1.6-0.36,3.21-1.31,4.29c-0.6,0.67-1.39,1.66-3.32,2.01c-0.74,0.14-2.09,0.27-2.8,0.25
		c-1.15-0.03-1.87-0.22-2.01-0.19c-0.2,0.03-0.32,0.14-0.36,0.2c-0.16,0.13-0.34,0.53-0.5,0.56c-0.26,0.05-0.31-0.03-0.46-0.69
		c-0.17-0.85,0.08-3.77,0.05-4.13c-0.05-0.55,0.28-0.82,0.69-0.9c0.26-0.05,0.29,0.03,0.5,0.68c0.36,1.08,0.5,1.73,1.03,2.22
		c0.7,0.7,1.63,0.98,2.71,0.78c2.19-0.4,2.72-2.53,2.64-3.42c-0.13-1.39-0.71-2.05-1.86-2.42c-2.89-0.96-3.57-1.18-4.45-2.04
		c-0.46-0.43-1.07-1.27-1.21-2.74c-0.23-2.49,0.97-4.82,4.8-5.52c1.04-0.19,1.69-0.38,3.09-0.44c0.18,0,0.33,0.02,0.48-0.01
		c0.04-0.01,0.15-0.06,0.25-0.1c0.11-0.05,0.21-0.09,0.24-0.1c0.15-0.03,0.22,0.01,0.24,0.2L88.48,125.48z"/>
	<path class="st3" d="M107.58,126.68c-0.61,0.67-1.18,0.9-1.65,1.1c0.67,0.01,1.72,0.03,2.66,0.93c0.62,0.55,1.11,1.51,1.09,2.97
		c-0.05,3.95-3.16,5.55-5.34,5.85c-1.32,0.18-2.3,0.21-3.62,0.39c-1.26,0.17-2.89,0.5-3.25,0.56c-0.29,0.04-0.31-0.12-0.3-0.54
		c0-0.45,0.05-0.46,0.49-0.57c1.15-0.35,1.3-1.01,1.38-2.33c0.03-0.43,0.06-1.12,0.09-3.91l0.02-1.35c0.05-3.69,0.05-5.56-0.05-6.24
		c-0.11-0.97-0.43-0.95-1.35-0.93c-0.29-0.01-0.29-0.06-0.28-0.51c0-0.46,0.07-0.51,0.57-0.58c1.03-0.14,5.18-0.92,6.01-1.04
		c1.24-0.17,4.71-0.65,4.67,3.19C108.72,124.77,108.28,125.89,107.58,126.68z M103.87,127.91c1.68-0.61,1.77-2.84,1.78-3.37
		c0.04-3.02-1.87-2.76-2.77-2.64c-0.56,0.08-0.65,0.12-0.67,0.25c-0.09,0.33-0.15,5.34-0.14,6.11
		C102.95,128.16,103.43,128.04,103.87,127.91z M102.06,135.57c0.1,0.62,0.32,0.99,1.48,0.83c0.69-0.1,1.53-0.45,2.08-1.14
		c0.59-0.77,0.88-1.98,0.89-2.98c0.01-0.53-0.01-2.54-1.72-2.94c-0.81-0.21-1.69-0.06-2.76,0.12
		C102.02,130.6,101.96,134.81,102.06,135.57z"/>
	<path class="st3" d="M112.91,121.78c-0.08-1.1-0.48-1.24-1.21-1.18c-0.31,0.04-0.31,0.04-0.31-0.49c0-0.53,0.03-0.53,0.38-0.57
		c0.35-0.04,1.27-0.12,2.19-0.23c0.92-0.08,1.84-0.16,2.15-0.2c0.96-0.11,1.92-0.25,2.8-0.38c0.9-0.1,1.77-0.23,2.52-0.31
		c0.23-0.03,0.23,0.18,0.23,0.45c0,0.32-0.11,1.04-0.17,2.24c-0.02,0.42-0.08,1.06-0.07,1.41c0,0.26-0.09,0.33-0.42,0.36
		c-0.3,0.04-0.38-0.03-0.4-0.27c-0.22-2.22-0.26-2.66-3.12-2.33c-0.36,0.04-1.5,0.17-1.67,0.46c-0.11,0.17-0.13,0.73-0.13,1.12
		c-0.01,1.48-0.01,3.17,0.02,4.64c3.55-0.38,3.76-0.62,3.88-1.87c0.07-0.72,0.07-0.72,0.48-0.77c0.17-0.02,0.36,0.04,0.36,0.22
		c0,0.39-0.03,1.98-0.03,2.3c0,0.45,0.05,2.48,0.05,2.87c0,0.34-0.09,0.41-0.35,0.44c-0.23,0.03-0.38,0.04-0.4-0.3
		c-0.1-0.96-0.16-1.46-0.74-1.63c-0.65-0.18-1.5-0.09-3.28,0.12c0,0.92,0.01,4.27,0.07,5.11c0.04,0.92,0.09,1.39,1.54,1.22
		c3.05-0.35,3.2-1.11,3.91-3.78c0.06-0.22,0.3-0.25,0.52-0.17c0.19,0.05,0.35,0.2,0.35,0.35c0,0.37-0.28,2.17-0.7,4.25
		c-0.04,0.22-0.15,0.42-0.36,0.44c-0.31,0.04-1.4,0.14-2.61,0.25c-1.21,0.14-2.57,0.27-3.44,0.37c-0.79,0.09-1.46,0.19-2.02,0.26
		c-0.56,0.09-1,0.17-1.34,0.21c-0.23,0.03-0.23-0.02-0.23-0.47c0-0.5,0.04-0.53,0.49-0.64c0.98-0.22,1.06-0.91,1.11-1.87
		c0.07-1.27,0.06-4.57,0.05-6.13C112.99,123.62,112.96,122.46,112.91,121.78z"/>
	<path class="st3" d="M125.65,120.37c-0.09-1.11-0.49-1.3-1.22-1.32c-0.31,0-0.31,0-0.31-0.53c0-0.53,0.04-0.53,0.38-0.53
		c0.34,0,1.26,0.02,2.18,0.01c0.92,0.02,1.84,0.04,2.15,0.04c0.96-0.01,1.92-0.04,2.8-0.07c0.9-0.01,1.77-0.04,2.51-0.04
		c0.23,0,0.23,0.21,0.24,0.48c0,0.32-0.11,1.03-0.15,2.23c-0.01,0.42-0.07,1.06-0.06,1.4c0,0.26-0.09,0.32-0.42,0.32
		c-0.31,0-0.38-0.08-0.4-0.31c-0.24-2.25-0.28-2.7-3.14-2.69c-0.36,0-1.49,0.01-1.66,0.27c-0.11,0.16-0.12,0.72-0.12,1.12
		c0,1.48,0.02,3.18,0.05,4.67c3.55,0.01,3.76-0.21,3.86-1.46c0.07-0.71,0.07-0.71,0.47-0.72c0.17,0,0.37,0.08,0.37,0.27
		c0.01,0.4-0.02,1.99-0.01,2.3c0,0.46,0.06,2.49,0.07,2.89c0,0.34-0.09,0.4-0.34,0.4c-0.23,0-0.39,0-0.41-0.34
		c-0.1-0.98-0.17-1.48-0.75-1.72c-0.66-0.26-1.5-0.25-3.28-0.24c0.01,0.93,0.05,4.29,0.11,5.14c0.05,0.92,0.09,1.4,1.55,1.39
		c3.05-0.01,3.19-0.76,3.87-3.36c0.05-0.21,0.3-0.22,0.52-0.11c0.19,0.08,0.35,0.24,0.35,0.39c0,0.37-0.27,2.15-0.67,4.2
		c-0.04,0.21-0.15,0.4-0.36,0.4c-0.31,0-1.4-0.02-2.61-0.04c-1.21,0.01-2.57-0.01-3.43-0.01c-0.78,0.01-1.45,0.04-2.01,0.04
		c-0.55,0.03-1,0.06-1.34,0.06c-0.23,0-0.23-0.05-0.24-0.5c-0.01-0.51,0.03-0.53,0.49-0.59c0.98-0.11,1.04-0.8,1.09-1.76
		c0.06-1.28,0.03-4.59,0.01-6.15C125.75,122.22,125.72,121.06,125.65,120.37z"/>
	<path class="st3" d="M141.22,125.97c0.51,0.04,2.66,0.18,3.17-0.26c0.28-0.24,0.3-0.5,0.38-1.38c0.01-0.34,0.09-0.39,0.34-0.37
		c0.31,0.02,0.44,0.08,0.44,0.35c0,0.37-0.06,1.66-0.06,2.59c0,0.85,0.06,2.15,0.06,2.65c0,0.32-0.13,0.34-0.34,0.32
		c-0.4-0.03-0.44-0.03-0.48-0.43c-0.11-1.72-0.11-1.88-3.54-2.11c0.02,3.47,0.02,3.84,0.06,4.61c0.08,1.49,0.1,2.13,1.03,2.26
		c0.34,0.05,0.53,0.06,0.76,0.08c0.13,0.01,0.17,0.17,0.17,0.46c0,0.32,0,0.61-0.17,0.6c-0.68-0.05-2.36-0.21-3.15-0.27
		c-1.37-0.09-2.43-0.11-2.83-0.14c-0.13,0-0.15-0.19-0.15-0.54c0-0.45,0.04-0.45,0.38-0.53c1.03-0.2,1.18-0.53,1.21-2.75
		c0.04-1.43,0.05-5.6,0.05-7.38c0-2.04-0.02-3.13-0.16-3.72c-0.15-0.65-0.53-0.8-1.03-0.86c-0.44-0.06-0.47-0.06-0.47-0.35
		c0-0.69,0-0.77,0.29-0.75c0.51,0.03,1.86,0.15,3.21,0.24c1.35,0.12,2.7,0.23,3.14,0.26c0.55,0.03,3,0.14,3.44,0.18
		c0.19,0.01,0.21,0.09,0.21,0.2c0,0.24-0.19,2.08-0.3,3.82c-0.02,0.55-0.06,0.63-0.46,0.6c-0.42-0.03-0.45-0.11-0.5-0.56
		c-0.23-1.95-0.25-2.08-0.76-2.35c-0.66-0.36-1.84-0.52-2.56-0.57c-1.25-0.08-1.39,0.04-1.38,0.68V125.97z"/>
</g>
</svg>
