<?xml version="1.0" encoding="utf-8"?>
<!-- Generator: Adobe Illustrator 28.0.0, SVG Export Plug-In . SVG Version: 6.00 Build 0)  -->
<svg version="1.1" id="Layer_1" xmlns="http://www.w3.org/2000/svg" xmlns:xlink="http://www.w3.org/1999/xlink" x="0px" y="0px"
	 viewBox="0 0 342.3 86.4" style="enable-background:new 0 0 342.3 86.4;" xml:space="preserve">
<style type="text/css">
	.st0{fill:#FFFFFF;}
	.st1{fill:#FDBC11;}
	.st2{fill-rule:evenodd;clip-rule:evenodd;fill:#0D0116;}
	.st3{fill:url(#SVGID_00000165954617228631566020000008583030476295070878_);}
</style>
<g>
	<g>
		<path class="st0" d="M104.2,28c-1.8-0.7-2.7-1-4.5-1c-1.9,0-4.2,0.7-4.2,3.2c0,4.6,10.4,3.6,10.4,11.5c0,5.2-4,7.2-8.8,7.2
			c-1.7,0-3.4-0.5-5-1l0.3-3.2c1.2,0.5,3.3,1.2,5,1.2c2,0,4.7-1.1,4.7-4c0-5.4-10.4-3.9-10.4-11.4c0-4.3,3.4-6.6,7.8-6.6
			c1.6,0,3.5,0.3,5.2,0.9L104.2,28z"/>
		<path class="st0" d="M115.3,27.4h-7.5v-3h18.5v3h-7.5v21.1h-3.5V27.4z"/>
		<path class="st0" d="M130,24.4h13.5v3h-10.1v7.1h9.2v3h-9.2v8h10.1v3H130V24.4z"/>
		<path class="st0" d="M156.7,24.4h3.6l10.2,24.2h-3.8l-2.5-6.1h-11.9l-2.5,6.1h-3.6L156.7,24.4z M158.4,27.6l-4.8,12h9.6
			L158.4,27.6z"/>
		<path class="st0" d="M174.2,24.4h3.5V35L188,24.4h4.6l-11.4,11.4l12.3,12.8h-5.1l-10.8-11.9v11.9h-3.5V24.4z"/>
		<path class="st0" d="M197.3,24.4h3.5v10.1h11.6V24.4h3.5v24.2h-3.5v-11h-11.6v11h-3.5V24.4z"/>
		<path class="st0" d="M232.6,23.9c7.3,0,11.6,5.3,11.6,12.5c0,7.3-4.3,12.5-11.6,12.5s-11.6-5.2-11.6-12.5
			C220.9,29.3,225.2,23.9,232.6,23.9z M232.6,45.9c5.6,0,8-4.6,8-9.5c0-4.9-2.6-9.5-8-9.5c-5.3,0-8,4.5-8,9.5
			C224.6,41.3,227,45.9,232.6,45.9z"/>
		<path class="st0" d="M249.1,24.4h3.5v21.1h10.1v3h-13.6V24.4z"/>
		<path class="st0" d="M266.3,24.4h7.1c7.2,0,12.9,4.4,12.9,11.9c0,8.1-4.9,12.3-12.9,12.3h-7.1V24.4z M269.7,45.5h3.6
			c6,0,9.3-2.9,9.3-9.1c0-5.6-3.8-9-8.8-9h-4.1V45.5z"/>
		<path class="st0" d="M291.6,24.4h13.5v3h-10.1v7.1h9.2v3h-9.2v8h10.1v3h-13.5V24.4z"/>
		<path class="st0" d="M310.5,24.4h5.9c4.8,0,9.4,0.8,9.4,6.5c0,2.9-2.2,5-5,5.5v0.1c1.1,0.4,1.6,0.9,2.4,2.4l4.6,9.6h-4l-3.7-8.4
			c-1.1-2.4-2.2-2.4-4.1-2.4H314v10.7h-3.5V24.4z M314,34.7h2.9c3.3,0,5.2-1.5,5.2-3.8c0-2.2-1.7-3.6-4.9-3.6H314V34.7z"/>
	</g>
	<g>
		<path class="st0" d="M122.3,85.7h-13.2v-4.5l-3.6-4.6h-3.6v9.1H90.5V79h3.1V62.1h-3.1v-6.7h16.3c7.9,0,12.8,4.1,12.8,10.8
			c0,4-1.9,7.1-5.3,8.8l3.3,3.9h4.7V85.7z M106.8,69.9c2.7,0,4.5-1.5,4.5-3.8c0-2.2-1.8-3.7-4.5-3.7h-5v7.5H106.8z"/>
		<path class="st0" d="M149.9,65.8h-6.8v-3.4h-8.2v4.9h9.9v6.6h-9.9v4.7h8.2v-3.4h6.8v10.4h-26.4V79h3.1V62.1h-3.1v-6.7h26.4V65.8z"
			/>
		<path class="st0" d="M197.2,62.1l-7.5,23.8h-7.9l-5.8-17.7l-5.8,17.7h-7.9l-7.6-23.8h-2.8v-6.7h15.3v6.7h-3.9l3.3,11.6l6.2-18.3
			h6.6l6.1,18.4l3.3-11.6h-3.9v-6.7H200v6.7H197.2z"/>
		<path class="st0" d="M232.6,85.7h-11.4v-5.2l-0.7-1.7h-11.9l-0.6,1.7v5.3H197V79h3.1l7.2-16.9H204v-6.7h15.1L229.2,79h3.4V85.7z
			 M214.7,63.6l-3.3,8.3h6.5L214.7,63.6z"/>
		<path class="st0" d="M265.6,85.7h-13.2v-4.5l-3.6-4.6h-3.6v9.1h-11.4V79h3.1V62.1h-3.1v-6.7h16.3c7.9,0,12.8,4.1,12.8,10.8
			c0,4-1.9,7.1-5.3,8.8l3.3,3.9h4.7V85.7z M250.1,69.9c2.7,0,4.5-1.5,4.5-3.8c0-2.2-1.8-3.7-4.5-3.7h-5v7.5H250.1z"/>
		<path class="st0" d="M282.4,55.4c9.6,0,16.5,6.1,16.5,15.1c0,9.1-6.8,15.3-16.5,15.3h-15.6V79h3.1V62.1h-3.1v-6.7H282.4z
			 M282.4,78.3c4.6,0,8-3.3,8-7.9c0-4.4-3.4-7.7-8-7.7h-4.2v15.6H282.4z"/>
		<path class="st0" d="M319.9,67.7c5.4,1.1,8.6,3.6,8.6,8.9c0,6.2-4.3,9.8-11.2,9.8c-3.8,0-6.8-1.1-8.9-3v2.4h-6.9V75.5h7.2
			c1.7,2.5,3.7,3.7,7.1,3.7c2.4,0,3.7-0.9,3.7-2.1c0-1-0.6-2.1-3-2.5l-5.9-1.2c-6-1.1-8.8-4.1-8.8-8.9c0-6.3,4.9-9.8,11.5-9.8
			c2.9,0,5.9,0.7,8.2,2.6v-1.9h6.7v9.5h-7.7c-1-1.8-2.8-3.4-5.8-3.4c-2.2,0-3.6,0.8-3.6,2.5c0,1.5,1.2,2.2,3.2,2.5L319.9,67.7z"/>
	</g>
	<g>
		<path class="st0" d="M332.6,80.3h-1.4v-1h4.2v1h-1.4v4.1h-1.3V80.3z M336.3,79.3h1.8l1.2,3.2l1.2-3.2h1.8v5.1h-1.2v-3.6h0
			l-1.3,3.6h-0.9l-1.3-3.6h0v3.6h-1.2V79.3z"/>
	</g>
</g>
<g>
	<path class="st1" d="M41.9,0c14.5,0,22.9,4.3,33.9,13.5v27.9c3,0.6,5.4,1.4,8.1,2.7l0,31c0,3.6-6,3.8-8.1,4l0.1,7.2H8.1l-0.1-7
		c-2.8-0.7-5.4-1.7-8.1-2.9l0-31c0.1-3.3,5.9-3.8,8.1-4V13.6C18.1,4.5,28.3,0,41.9,0z"/>
	<g>
		<defs>
			<path id="SVGID_1_" d="M19.4,45.6c0,0-0.5-0.6-4.7-1.7c-2.9-0.8-9-0.3-11,0.4c-1,0.4-1.6,0.7-1.6,1.2v7.2h17.2V45.6z"/>
		</defs>
		
			<linearGradient id="SVGID_00000012454230054469386080000015197906929948949377_" gradientUnits="userSpaceOnUse" x1="2.2" y1="48.1245" x2="19.4455" y2="48.1245">
			<stop  offset="0" style="stop-color:#0D0116"/>
			<stop  offset="0.35" style="stop-color:#8F0028"/>
			<stop  offset="0.7" style="stop-color:#8F0028"/>
			<stop  offset="1" style="stop-color:#0D0116"/>
		</linearGradient>
		
			<use xlink:href="#SVGID_1_"  style="overflow:visible;fill-rule:evenodd;clip-rule:evenodd;fill:url(#SVGID_00000012454230054469386080000015197906929948949377_);"/>
		<clipPath id="SVGID_00000036219422442858204180000001710721719098647218_">
			<use xlink:href="#SVGID_1_"  style="overflow:visible;"/>
		</clipPath>
	</g>
	<g>
		<defs>
			<path id="SVGID_00000062914043561946608990000004222683929995622075_" d="M64.4,75.1c0,0,0.5,0.6,4.7,1.7
				c2.9,0.8,8.9,0.4,11.1-0.4c1.1-0.4,1.6-0.5,1.6-1.1l-0.1-7.4l-17.3,0V75.1z"/>
		</defs>
		
			<linearGradient id="SVGID_00000039112403729023967280000017503798578515157668_" gradientUnits="userSpaceOnUse" x1="64.4487" y1="72.5722" x2="81.8611" y2="72.5722">
			<stop  offset="0" style="stop-color:#0D0116"/>
			<stop  offset="0.35" style="stop-color:#8F0028"/>
			<stop  offset="0.7" style="stop-color:#8F0028"/>
			<stop  offset="1" style="stop-color:#0D0116"/>
		</linearGradient>
		
			<use xlink:href="#SVGID_00000062914043561946608990000004222683929995622075_"  style="overflow:visible;fill-rule:evenodd;clip-rule:evenodd;fill:url(#SVGID_00000039112403729023967280000017503798578515157668_);"/>
		<clipPath id="SVGID_00000045593901866177288200000005348747941950424712_">
			<use xlink:href="#SVGID_00000062914043561946608990000004222683929995622075_"  style="overflow:visible;"/>
		</clipPath>
	</g>
	<path class="st2" d="M10.1,14.6C19.3,6.2,29.4,2.1,41.8,2.1c13.4,0,21.6,3.8,31.7,12.4l0.1,69.7H10.2L10.1,14.6z"/>
	<g>
		<defs>
			<path id="SVGID_00000143587662488371854670000000731285965500331648_" d="M12.5,15.6l0.1,66.2h58.6l-0.1-66.2
				C62,7.9,54,4.5,41.8,4.5C29.6,4.5,19.9,8.9,12.5,15.6z"/>
		</defs>
		
			<linearGradient id="SVGID_00000033342598231710007790000008726752887960927142_" gradientUnits="userSpaceOnUse" x1="41.8619" y1="81.8235" x2="41.8619" y2="4.5378">
			<stop  offset="0" style="stop-color:#FDBC11"/>
			<stop  offset="0.3539" style="stop-color:#FDBC11"/>
			<stop  offset="1" style="stop-color:#FFFFFF"/>
		</linearGradient>
		
			<use xlink:href="#SVGID_00000143587662488371854670000000731285965500331648_"  style="overflow:visible;fill-rule:evenodd;clip-rule:evenodd;fill:url(#SVGID_00000033342598231710007790000008726752887960927142_);"/>
		<clipPath id="SVGID_00000026154612473935166240000016296454909841676213_">
			<use xlink:href="#SVGID_00000143587662488371854670000000731285965500331648_"  style="overflow:visible;"/>
		</clipPath>
	</g>
	<path class="st2" d="M25.1,31.4C25,32,25,32.3,24.8,32.5v-0.7C24.8,31.6,25,31.5,25.1,31.4z"/>
	<path class="st2" d="M12.8,48c7.1-3.2,18-5.2,30.2-5.2c12.2,0,23,2,30.2,5.2C65,45.5,54.4,44,43,44C31.5,44,21,45.5,12.8,48z"/>
	<path class="st2" d="M50.1,43.7c-0.2-0.2-0.1-0.6-0.2-0.7c-0.1,0-0.2-0.2-0.3-0.2c-0.2-0.1-0.2-0.2-0.1-0.4
		c0.3-0.5,0.2-0.9,0.3-1.3c0.1-0.6,0.1-1.5,0.1-2.2c0-0.3-0.2-0.3-0.3-0.8c-0.1-0.4-0.2-0.8-0.3-1.2c0-0.1-0.1-0.3-0.1-0.2
		c0-0.1-0.1-0.1-0.2,0.3c-0.3,0.8-0.5,1.2-0.9,2.1c-0.3,0.8,0,2.1,0.1,2.9c0.1,0.4,0.4,0.9,0.4,1.1c0.1,0.4,0,0.4,0.1,0.6l-2.5,0
		c-0.1-0.3-0.1-0.2-0.1-0.5C46,43,45.9,43,45.8,42.9c-0.1-0.2-0.1-0.3,0-0.4c0,0,0,0,0,0c0.1-0.1,0.2-0.2,0.2-0.3
		c0.1-0.3,0-0.8,0.1-1.2c0.2-0.8,0.2-1.8,0-2.6c-0.5-1.2-0.2-2.6-0.6-3.9c0-0.3-0.1-0.7-0.4-0.7c-0.6-0.1-0.9-0.1-1.5-0.1
		c-0.7,0.1-1.5,0.2-2.2,0.3c-0.6,0.2-1.5,0.3-1.8,0.3c-0.1,0-0.4,0-0.5,0c-0.2,0-0.3,0.1-0.5,0.2c-0.1,0.1-0.2,0.2-0.3,0.4l0,0.7
		c-0.1,0.1-0.1,0.1-0.1,0.1c0,0-0.1,0-0.2,0c-0.1,0-0.2,0.1-0.3,0.2c0,0-0.2,0.1-0.2-0.1c0-0.2,0-0.4,0-0.5c0-0.3-0.2-0.5-0.5-0.9
		c-0.5-0.4-1.6-0.7-2.2-1c-0.1,0-1.5-0.8-2.1-0.9c-0.1,0-0.2,0-0.3,0c-0.1,0-0.1,0.2-0.2,0.4c-0.5,1-0.9,1.9-1.2,2.8
		c-0.5,2-0.4,3.4-0.3,4.6c0,0.3,0.2,0.8,0.3,1.4c0,0.1,0.3,0.5,0.5,0.7c0.1,0.1,0.1,0.3,0.3,0.5c0.2,0.3,0.3,0.3,0.4,0.5
		c0.1,0.1,0.3,0.4,0.3,0.4l-3.1,0c-0.1-0.2-0.1-0.4,0-0.6c0-0.2,0-0.4-0.3-0.5c-0.2,0-0.3-0.1-0.2-0.5c0.2-0.8,0-1.8-0.2-2.8
		c-0.2-0.9-0.4-2-0.5-2.2c0-0.2-0.3-1-0.3-1.1c-0.1-0.3-0.3-0.2-0.4,0.1c-0.6,1.4-0.9,2.1-1.2,4l0,0.8c0,0.7,0,0.7,0.1,1
		c0.1,0.4,0.2,0.6,0.3,0.8c0.1,0.2,0.1,0.5,0.2,0.5c0.1,0.3,0.2,0.5,0.4,0.7l-2.8,0.4c-0.1-0.4-0.2-0.7,0-1.1c0.1-0.3,0-0.5-0.3-0.5
		c-0.3-0.1-0.2-0.3-0.1-0.5c0.1-0.2,0.2-0.4,0.2-0.7c0.1-0.7,0.1-1.4,0.1-2.1c0-0.8,0-1.7,0-2.9c-0.2-1-0.2-1.2-0.3-1.6
		c0-0.4-0.2-0.2-0.4,0c-0.2,0.3-0.3,0.8-0.3,1c0,0.3-0.1,0.3-0.2,0.1l-0.1-0.5c0-0.2-0.1-0.2-0.2-0.1c0,0-0.1,0.4-0.2,0.5
		c-0.1,0.4-0.1,0.7-0.2,1.1c0,0.1-0.1,0.2-0.1,0.2c-0.1,0-0.2-0.1-0.3-0.1c-0.3-0.9-0.2-1.7-0.2-2.2c0-0.5,0.2-0.7,0.5-1.5
		c0.2-0.8,0.5-1.4,0.5-1.6c0.2-0.6,0.4-0.7,0.5-1.2c0.2-0.7,0.4-0.9,0.2-1.4c-0.3-0.8-0.5-2.4-0.2-4.3c0-0.1,0-0.2,0-0.3
		c0-0.4,0.1-0.9,0.1-1.3c0.2-1,0.3-2.4,1.1-3.4c0.4-0.3,0.6-0.9,1-1.3c0.1-0.1,0.3-0.3,0.8-0.4c0.3,0,0.9,0,1.6,0
		c2.5,0,6.9,0.1,8.7,0.3c1.2,0.2,3.7,0,4.2,0c2.3,0,2.8-0.1,3.8-0.2c3.2-0.7,3-0.2,5.1-1c0.6-0.2,1.5-0.5,2.6-0.6
		c0.4-0.1,0.6-0.1,0.8-0.2c0.1-0.3,0.4-0.5,0.7-0.5c0.3,0.1,0.3,0.4,0.8,0.4c1.2-0.2,0.7-0.4,2-0.6c0.1,0,0.4-0.3,0.6-0.4
		c0.2,0,0.6,0.1,0.7,0c1,0.5,0.6,0.4,0.9,0.5c0.2,0.3,0.6,0.5,0.9,0.7c0.4,0.3,0.5,0.3,0.8,0.1c0.2-0.2,0.4-0.4,1.2-0.7
		c0.3-0.1,0.8-0.1,1.1,0.2c0.1,0.1,0,0.4,0.1,0.5c0,0.5-0.6,0.7-0.9,1.3c-0.1,0.5-0.5,0.6-0.7,0.9c-0.1,0.2-0.2,0.3-0.3,0.5
		c-0.1,0.4-0.2,0.6-0.1,1c0.1,0.5,0.2,0.8,0.4,1c0.2,0.1,0.5,0.3,0.5,0.6c0,0.3-0.1,0.3,0,0.6c0.1,0.4,0.2,0.6,0.1,0.8
		c-0.1,0.2-0.5,0.5-0.8,0.6c-0.6,0.4-0.7,0.4-1.5,0.5c-0.4-0.1-0.9-0.1-1.4,0.1c-0.7,0.3-1.4,0.2-1.8,0.4c-0.4,0.3-0.8,1-1,1.5
		c-0.5,1-0.8,1.8-1,3.2c-0.3,0.8-0.5,2-1.4,3c-0.2,0.6-0.6,0.6-0.7,1.4c-0.2,0.6-0.4,1.5-0.6,2.1c-0.1,0.3-0.2,1-0.3,1.5
		c-0.4,0.9-0.5,1.1-0.4,2.1c0.1,0.4,0.1,0.9,0.4,2.2c0.1,0.3,0.3,0.5,0.4,0.9c0.1,0.4,0.2,0.6,0.5,0.9L50.1,43.7z M24.7,32.1
		c0.1-0.5,0.2-0.2,0.3,0c0.1,0.3,0.1,0.3-0.1,0.9c-0.2,0.4-0.3,0.9-0.2-0.2L24.7,32.1L24.7,32.1z"/>
	
		<linearGradient id="SVGID_00000127036666828186754040000012773022566154944432_" gradientUnits="userSpaceOnUse" x1="2.203" y1="61.1825" x2="81.8209" y2="61.1825">
		<stop  offset="0" style="stop-color:#0D0116"/>
		<stop  offset="0.35" style="stop-color:#8F0028"/>
		<stop  offset="0.7" style="stop-color:#8F0028"/>
		<stop  offset="1" style="stop-color:#0D0116"/>
	</linearGradient>
	<path style="fill:url(#SVGID_00000127036666828186754040000012773022566154944432_);" d="M2.2,75.4c4.4,2,10.3,3.4,17.4,3.6
		c11.7,0.3,23.1-3.4,36.6-5.4c5.6-0.8,17.2-2.1,25.6,1.8V46c-8.4-3.9-20-2.6-25.6-1.8c-13.5,2-24.9,5.7-36.6,5.4
		c-7.1-0.2-13-1.6-17.4-3.6V75.4z"/>
	<g>
		<path class="st2" d="M45,76.8c0.5-0.1,1.2-0.2,1.7-0.3c0.5-0.1,1-0.1,1.3,0.1c0.2,0.1,0.4,0.3,0.4,0.6c0,0.5-0.6,0.8-0.7,0.9
			c0.2,0,0.6,0,0.8,0.3c0.2,0.2,0.2,0.4,0.2,0.6c0,0.5-0.3,0.8-0.5,1c-0.2,0.2-0.7,0.4-1.3,0.5l-1.8,0.2L45,76.8z M46,78.3l0.3,0
			c0.5-0.1,1-0.1,1-0.7c0-0.3-0.1-0.5-0.7-0.5c-0.1,0-0.3,0.1-0.6,0.1L46,78.3z M46.1,80.1c0.7-0.1,0.9-0.1,1.2-0.2
			c0.3-0.2,0.5-0.4,0.5-0.7c0-0.7-0.7-0.6-1.3-0.5l-0.3,0L46.1,80.1z"/>
		<path class="st2" d="M50.4,79.7l-1.1,0.2l0-3.8c0.2,0,1.7-0.3,1.8-0.4c0.9-0.2,1.3-0.2,1.7,0c0.4,0.2,0.4,0.4,0.4,0.7
			c0,0.4-0.3,0.9-1.2,1.2c0.5,0.7,0.9,1,1.2,1.1c0.2,0.1,0.4,0,0.6,0l0,0L53.9,79c0,0,0,0,0,0.1c-0.1,0.1-0.4,0.1-0.6,0.2
			c-1.1,0.2-1.5-0.3-2.2-1.3c-0.2,0.1-0.4,0.1-0.7,0.1L50.4,79.7z M50.4,77.7c0.6-0.1,0.8-0.1,1-0.2c0.5-0.2,0.7-0.5,0.7-0.8
			c0-0.4-0.3-0.6-1.1-0.4l-0.6,0.1L50.4,77.7z"/>
		<path class="st2" d="M57.4,74.7l2.1,3.5l-1.2,0.2l-0.6-1.1l-1.9,0.3l-0.6,1.2l-1,0.1l2.3-4.2L57.4,74.7z M57.5,77l-0.7-1.3
			l-0.7,1.6L57.5,77z"/>
		<path class="st2" d="M60.7,74.3l3,2.5L63.6,74l0.7-0.1l0,3.9l-0.6,0.2l-3.1-2.6l0.1,2.8L60,78.4l0-4L60.7,74.3z"/>
		<path class="st2" d="M65,73.9c0.4,0,1,0,1.6,0l0.3,0c0.7,0,2.6,0,2.6,2c0,0.9-0.5,1.5-1,1.8c-0.6,0.3-1.7,0.3-2.1,0.3l-1.4,0
			L65,73.9z M66,77.4l0.7,0c0.9,0,1.8-0.2,1.8-1.5c0-0.9-0.3-1.5-1.7-1.5c-0.2,0-0.5,0-0.8,0L66,77.4z"/>
	</g>
	<g>
		<path class="st2" d="M27.1,10.1c0,0.1,0,0.2-0.1,0.2c-0.2,0.1-0.2-0.1-0.7-0.5c-0.3-0.2-0.5-0.3-0.9-0.1c-0.5,0.2-0.7,0.6-0.5,1
			c0.2,0.4,0.4,0.4,1.5,0.5c0.8,0.1,1.6,0.2,1.8,0.8c0.3,0.6-0.1,1.6-1.3,2.1c-0.4,0.2-1.3,0.4-1.4,0.1c-0.4-1-0.4-1.1-0.2-1.1
			c0.2-0.1,0.2,0.1,0.6,0.5c0.4,0.3,0.8,0.4,1.2,0.2c0.5-0.2,0.8-0.7,0.6-1.1c-0.5-1.2-2.8,0-3.4-1.4c-0.2-0.5,0.1-1.3,1.1-1.7
			c0.6-0.3,1.1-0.4,1.2-0.3c0.1,0,0.1,0.1,0.1,0.2L27.1,10.1z"/>
		<path class="st2" d="M29,9.7c-0.1-0.2-0.1-0.2-0.3-0.2c-0.3,0-0.3,0.1-0.4,0c0,0,0-0.1,0.1-0.1c0.2-0.1,0.3-0.1,0.9-0.2
			C29.5,9.2,29.8,9,30,9c0.1,0,0.1,0,0.1,0c0,0.1,0,0.1-0.3,0.2c-0.1,0-0.1,0.1-0.1,0.3l0.9,2.7c0.1,0.2,0.1,0.2,0.4,0.1
			c0.2,0,0.2,0,0.3,0c0,0,0,0.1-0.1,0.1c-0.1,0-0.3,0.1-0.8,0.2c-0.6,0.2-0.7,0.3-0.9,0.3c-0.1,0-0.1,0-0.1,0c0,0,0-0.1,0.2-0.1
			c0.3-0.1,0.3-0.2,0.3-0.4L29,9.7z"/>
		<path class="st2" d="M34.8,11.5c0,0.1,0,0.1-0.1,0.2c-0.1,0-0.1,0-0.2-0.1l-2.6-2.3c-0.1-0.1-0.1-0.1-0.1-0.1c0,0,0,0,0,0.1
			l0.5,2.2c0.1,0.3,0.1,0.4,0.4,0.4c0.1,0,0.3,0,0.3,0c0,0,0,0.1-0.1,0.1c-0.2,0-0.4,0.1-0.6,0.1c-0.2,0-0.3,0.1-0.5,0.1
			c-0.1,0-0.2,0-0.2,0c0,0,0-0.1,0.2-0.1c0.3-0.1,0.3-0.2,0.2-0.7L31.5,9c0-0.2-0.1-0.2-0.3-0.2c-0.2,0-0.2,0-0.2,0
			c0,0,0-0.1,0.1-0.1c0.1,0,0.1,0,0.5-0.1c0.3-0.1,0.3-0.1,0.4-0.1c0.1,0,0.2,0.1,0.3,0.2l1.9,1.8c0.1,0.1,0.1,0.1,0.1,0.1
			c0,0,0,0,0-0.1L34,8.7c-0.1-0.4-0.2-0.4-0.4-0.4c-0.1,0-0.2,0-0.2,0c0-0.1,0.1-0.1,0.1-0.1c0.1,0,0.2,0,0.5-0.1
			c0.3-0.1,0.3-0.1,0.4-0.1c0.1,0,0.1,0,0.1,0c0,0.1,0,0.1-0.2,0.1c-0.2,0.1-0.2,0.2-0.2,0.3L34.8,11.5z"/>
		<path class="st2" d="M37.7,11.1c0.3,0,0.5-0.2,0.6-0.7c0.1-0.5,0.1-0.6,0.2-0.6c0.1,0,0.1,0,0.2,0.6c0,0.3,0,0.4-0.1,0.5
			c-0.1,0.1-0.5,0.3-1,0.3c-1.2,0.1-2-0.7-2.1-1.7c-0.1-1.2,0.6-2,1.7-2.1c0.4,0,0.7,0,1,0.1c0.1,0,0.1,0,0.1,0.4
			c0,0.4,0,0.5-0.1,0.5c-0.1,0-0.1,0-0.3-0.4c-0.3-0.4-0.5-0.5-0.7-0.5c-0.7,0.1-1,0.6-0.9,1.8C36.5,10.7,37.1,11.2,37.7,11.1z"/>
		<path class="st2" d="M39.8,7.7c0-0.1-0.1-0.2-0.3-0.2c-0.1,0-0.2,0-0.2-0.1c0-0.1,0.1-0.1,0.2-0.1c0.1,0,0.2,0,1.2,0
			c0.8,0,1.2-0.1,1.4-0.1c0.1,0,0.2,0,0.2,0.1l0,0.7c0,0.1,0,0.1-0.1,0.1c-0.1,0-0.1,0-0.3-0.3c-0.2-0.3-0.4-0.5-1-0.4
			c-0.4,0-0.4,0-0.4,0.2l0,1.2c0,0.1,0,0.1,0.2,0.1c0.6,0,0.7,0,0.8-0.2c0.1-0.2,0.1-0.3,0.2-0.3c0.1,0,0.1,0,0.1,0.1
			c0,0.1,0,0.3,0,0.5c0,0.2,0,0.4,0,0.5c0,0.1,0,0.2-0.1,0.2c-0.1,0-0.1-0.1-0.2-0.3c-0.1-0.3-0.1-0.3-0.7-0.3c-0.3,0-0.3,0-0.3,0.1
			l0,1.1c0,0.4,0.1,0.5,0.6,0.5c0.5,0,0.7-0.2,0.9-0.6c0.1-0.3,0.1-0.3,0.2-0.3c0.1,0,0.1,0,0.1,0.1l0,0.8c0,0.1,0,0.1-0.2,0.1
			c-0.2,0-0.6,0-1.4,0c-0.9,0-1.1,0.1-1.4,0.1c-0.1,0-0.2,0-0.2-0.1c0-0.1,0-0.1,0.1-0.1c0.3,0,0.4-0.1,0.4-0.3L39.8,7.7z"/>
		<path class="st2" d="M47.3,10.6c0,0.3,0,0.4,0.3,0.4c0.3,0,0.3,0.1,0.3,0.1c0,0.1,0,0.1-0.1,0.1c-0.1,0-0.6-0.1-0.8-0.1
			c-0.3,0-0.8,0-1-0.1c0,0-0.1,0-0.1-0.1c0-0.1,0.1-0.1,0.2-0.1c0.3,0,0.5-0.1,0.5-0.2l0.2-2.6c0-0.2,0-0.2-0.2-0.2
			c-0.1,0-0.4,0.1-0.5,0.1c0,0-0.1,0-0.1-0.1c0-0.1,0.1,0,0.5-0.2c0.8-0.2,0.9-0.3,0.9-0.3c0,0,0.1,0,0,0.1L47.3,10.6z"/>
		<path class="st2" d="M50.9,7.9c0.9,0.2,1.5,1,1.3,2c-0.1,0.8-0.8,1.4-1.4,1.8c-0.7,0.3-1.5,0.5-1.9,0.4c0,0-0.1,0-0.1-0.1
			c0,0,0.1,0,0.5-0.1c1.1-0.2,1.9-1,2.1-2.1c0.2-1-0.1-1.7-0.6-1.7C50.5,8,50.1,8.3,50,8.9c-0.1,0.6,0.1,1.2,0.5,1.3
			c0.3,0.1,0.3-0.1,0.5-0.1c0,0,0.1,0,0.1,0.1c0,0-0.3,0.3-0.8,0.2c-0.6-0.1-1-0.6-0.9-1.4C49.5,8.3,50.2,7.8,50.9,7.9z"/>
		<path class="st2" d="M54.4,9.3c-0.7-0.2-0.7-0.1-0.8-0.2c0,0,0,0,0-0.1c0-0.1,0.1-0.3,0.1-0.4c0-0.1,0.1-0.1,0.2-0.1
			c0.4,0.1,0.9,0.3,1.3,0.4c0.4,0.1,0.8,0.2,1.1,0.3c0.1,0,0.1,0.1,0.1,0.1c0,0-0.2,0.2-2.5,2.8c-0.4,0.4-0.4,0.5-0.5,0.4
			c-0.1,0-0.1-0.1-0.1-0.1c0-0.1,2.4-2.7,2.4-2.7c0-0.1,0-0.1-0.3-0.2L54.4,9.3z"/>
		<path class="st2" d="M57.4,13.8c-0.9-0.4-1.2-1.1-1-1.5c0.2-0.4,0.8-0.4,1.3-0.5c-0.4-0.4-0.6-0.8-0.4-1.2
			c0.2-0.5,0.9-0.6,1.6-0.3c0.8,0.3,1.1,0.8,0.9,1.3c-0.2,0.4-0.7,0.4-1.2,0.4c0.4,0.4,0.8,0.9,0.6,1.5C59,14,58.2,14.1,57.4,13.8z
			 M57.5,13.7c0.5,0.2,1,0.1,1.1-0.3c0.2-0.5-0.4-0.9-0.7-1.4c-0.5,0.1-0.7,0.2-0.9,0.5C56.8,13,56.9,13.5,57.5,13.7z M58.5,11.8
			c0.5,0,0.7-0.1,0.8-0.4c0.2-0.4,0-0.8-0.5-1c-0.4-0.2-0.8-0.1-1,0.2C57.7,11.1,58.1,11.5,58.5,11.8z"/>
	</g>
	<g>
		<path class="st0" d="M79.7,63.2c0,1.1-0.9,1.9-2,1.9c-1.1,0-2-0.8-2-1.9c0-1.1,0.9-1.9,2-1.9C78.7,61.3,79.7,62.1,79.7,63.2z
			 M76.2,63.2c0,0.8,0.7,1.5,1.5,1.5c0.9,0,1.5-0.7,1.5-1.5c0-0.8-0.7-1.5-1.5-1.5C76.9,61.6,76.2,62.3,76.2,63.2z M78.8,64l0,0.2
			c0,0.1-0.2,0.1-0.3,0.1c-0.4,0-0.6-0.3-0.9-0.9c0,0-0.2,0-0.2,0v0.8h-0.5v-2.1c0.1,0,0.7,0,0.8,0c0.4,0,0.6,0,0.7,0.2
			c0.2,0.1,0.2,0.3,0.2,0.4c0,0.4-0.4,0.5-0.5,0.6c0.2,0.3,0.3,0.6,0.4,0.7C78.5,63.9,78.6,64,78.8,64L78.8,64z M77.3,63
			c0.3,0,0.7,0,0.7-0.4c0-0.2-0.2-0.3-0.3-0.3h-0.4V63z"/>
	</g>
	<path class="st0" d="M11.8,54.1c0.9-0.5,2-0.5,3.1-0.3c0.5,0.1,0.9,0.1,1.4,0.2c0.2,0,0.4,0.1,0.6,0.1c0.1,0,0.1,0,0.2,0
		c0,0,0.1,0,0.1,0c0.2,0,0.2,0.1,0.2,0.1c0,0.1-0.1,1.2-0.1,1.4c0,0.2,0,1.1-0.1,1.1c0,0.1-0.1,0.1-0.3,0.1c-0.2,0-0.3,0-0.3-0.3
		c0-0.3-0.1-0.8-0.2-1c-0.4-0.7-1.5-0.9-1.9-0.9c-1.2-0.1-1.8,0.2-2.2,0.6c-0.4,0.5-0.7,1.2-0.6,2.5c0,2.8,1.4,4.1,3,4.3
		c0.4,0,1.6,0.2,2.2-1.2c0.2-0.4,0.2-0.4,0.3-0.4c0,0,0.4,0.1,0.5,0.3c0,0-0.3,1.8-0.4,1.9c-0.1,0.1-1.5,0.3-2.8,0.1
		c-3.2-0.4-4.6-2.7-4.7-5C9.7,55.8,10.5,54.7,11.8,54.1z"/>
	<path class="st0" d="M19.2,55.2c0-0.6-0.3-0.7-0.6-0.7c-0.2,0-0.2,0-0.2-0.3c0-0.3,0-0.3,0.2-0.3c0.2,0,0.7,0,1.2,0
		c0.5,0,1,0,1.1,0c0.5,0,1,0,1.5-0.1c0.5,0,0.9,0,1.3,0c0.1,0,0.1,0.1,0.1,0.2c0,0.2-0.1,0.5-0.1,1.2c0,0.2,0,0.5,0,0.7
		c0,0.1-0.1,0.2-0.2,0.2c-0.2,0-0.2,0-0.2-0.2c-0.1-1.2-0.1-1.4-1.7-1.4c-0.2,0-0.8,0-0.9,0.2c-0.1,0.1-0.1,0.4-0.1,0.6
		c0,0.8,0,1.6,0,2.4c1.9,0,2-0.1,2.1-0.8c0-0.4,0-0.4,0.3-0.4c0.1,0,0.2,0,0.2,0.1c0,0.2,0,1,0,1.2c0,0.2,0,1.3,0,1.5
		c0,0.2-0.1,0.2-0.2,0.2c-0.1,0-0.2,0-0.2-0.2c-0.1-0.5-0.1-0.8-0.4-0.9c-0.3-0.1-0.8-0.1-1.7-0.1c0,0.5,0,2.2,0,2.7
		c0,0.5,0,0.7,0.8,0.7c1.6,0,1.7-0.4,2.1-1.8c0-0.1,0.2-0.1,0.3-0.1c0.1,0,0.2,0.1,0.2,0.2c0,0.2-0.1,1.1-0.4,2.2
		c0,0.1-0.1,0.2-0.2,0.2c-0.2,0-0.7,0-1.4,0c-0.6,0-1.4,0-1.8,0c-0.4,0-0.8,0-1.1,0c-0.3,0-0.5,0-0.7,0c-0.1,0-0.1,0-0.1-0.3
		c0-0.3,0-0.3,0.3-0.3c0.5-0.1,0.6-0.4,0.6-0.9c0-0.7,0-2.4,0-3.2C19.3,56.2,19.2,55.6,19.2,55.2z"/>
	<path class="st0" d="M29.9,57.8c0.4,0.8,1.1,2,1.5,2.5c0.6,0.8,1.1,0.7,1.3,0.7c0.1,0,0.1,0,0.1,0.2c0,0.2,0,0.2-0.1,0.3
		c-0.2,0.1-0.5,0.2-0.9,0.3c-1.2,0.1-1.9-0.8-2.1-1.1c-0.5-0.7-0.9-1.6-1.2-2.4c-0.4,0.1-0.6,0.1-0.9,0.1c0,0.7,0,1.1,0,1.5
		c0,1.4,0.1,1.5,0.9,1.4c0.1,0,0.2,0.1,0.2,0.3c0,0.1,0,0.2-0.1,0.2c-0.1,0-1.4,0.1-1.7,0.2c-0.7,0.1-1.4,0.2-1.6,0.2
		c-0.1,0-0.1-0.1-0.1-0.3c0-0.2,0-0.2,0.3-0.3c0.6-0.2,0.6-0.7,0.7-1.2c0-1,0-2.6,0-3.6c0-0.5,0-1.8-0.1-2.1
		c-0.1-0.3-0.2-0.3-0.7-0.3c-0.1,0-0.1,0-0.1-0.3c0-0.2,0.1-0.3,0.2-0.3l1.1-0.1c1.2-0.1,2.1-0.3,2.5-0.3c1.5-0.2,2.3,0.7,2.3,2
		C31.4,57.1,30.2,57.7,29.9,57.8z M27.7,57.8c0.1,0,0.3,0,0.5,0c0.7-0.1,1.5-0.2,1.5-1.9c0-1.9-1.1-1.8-1.6-1.7
		c-0.4,0-0.4,0.1-0.4,0.5L27.7,57.8z"/>
	<path class="st0" d="M36.7,55.1c0,1.3,0,2.8,0,3.4c0,1.3,0,1.4,1,1.2c0.2,0,0.2,0.1,0.2,0.2c0,0.2,0,0.4-0.1,0.5
		c-0.1,0-0.6,0.1-0.9,0.1c-0.3,0.1-0.7,0.1-1.2,0.2c-0.4,0.1-0.7,0.1-1,0.2c-0.3,0.1-0.6,0.1-0.8,0.2c-0.1,0-0.1-0.1-0.1-0.3
		c0-0.1,0-0.2,0.1-0.3c0.7-0.2,0.8-0.3,0.9-1.1c0-0.5,0-2.9,0.1-3.5c0-0.5,0-2,0-2.6c-1.8,0.4-2,0.3-2.2,1.3
		c-0.1,0.4-0.1,0.4-0.2,0.5c-0.2,0-0.3,0.1-0.3-0.1c0,0,0.2-1.5,0.2-1.7c0-0.3,0.1-0.4,0.2-0.5c0.1,0,0.1,0,0.3,0.1
		c0.3,0,2.4-0.4,2.9-0.5c0.3,0,3.1-0.5,3.3-0.7c0.1,0,0.2-0.1,0.2-0.1c0.1,0,0.1,0,0.1,0.1c0,0.1,0,0.9-0.1,1.2
		c0,0.2-0.1,0.5-0.1,0.7c0,0.1-0.1,0.1-0.3,0.2c-0.1,0-0.2,0-0.2-0.2c0-1-0.4-0.7-0.8-0.7c-0.3,0-0.8,0.1-1.2,0.2L36.7,55.1z"/>
	<path class="st0" d="M40.9,52.2c-0.1-0.3-0.2-0.3-0.8-0.2c-0.2,0-0.2,0-0.2-0.3c0-0.2,0-0.3,0.2-0.3c0.2,0,0.9-0.2,1.6-0.3
		c0.5-0.1,1.2-0.3,1.5-0.3l0.2,0c0.1,0,0.1,0,0.1,0.2c0,0.3,0,0.4-0.2,0.4c-0.5,0.2-0.7,0.3-0.8,1c0,0.4,0,1.9,0,2.5
		c0,1.7,0,2.9,0.1,3.3c0.1,0.4,0.1,0.6,0.5,0.5l0.3-0.1c0.1,0,0.1,0,0.1,0.2c0,0.2,0,0.3-0.1,0.3c-0.3,0.1-1.2,0.2-1.9,0.4
		c-0.6,0.1-1,0.2-1.4,0.3c-0.1,0-0.1,0-0.1-0.3c0-0.2,0-0.2,0.3-0.3c0.5-0.2,0.7-0.5,0.7-1.3c0-1,0-2.7,0-3.6
		C41,53.8,41,52.5,40.9,52.2z"/>
	<path class="st0" d="M46.9,53.8c0.3-0.1,1.4-0.3,1.6-0.6c0.1-0.2,0.2-0.3,0.2-0.7c0-0.2,0-0.2,0.2-0.2c0.2,0,0.2,0,0.2,0.1
		c0,0.2,0,0.8,0,1.3c0,0.4,0,1.1,0,1.3c0,0.2-0.1,0.2-0.2,0.2c-0.2,0-0.2,0-0.2-0.1c-0.1-0.8-0.1-0.9-1.8-0.6c0,1.7,0,1.9,0,2.3
		c0,0.7,0.1,1,0.5,1c0.2,0,0.3,0,0.4-0.1c0.1,0,0.1,0.1,0.1,0.2c0,0.2,0,0.3-0.1,0.3c-0.4,0.1-1.2,0.2-1.6,0.3
		c-0.7,0.1-1.3,0.3-1.5,0.3c-0.1,0-0.1-0.1-0.1-0.2c0-0.2,0-0.2,0.2-0.3c0.5-0.2,0.6-0.4,0.6-1.5c0-0.7,0-2.8,0-3.6
		c0-1,0-1.5-0.1-1.8c-0.1-0.3-0.3-0.3-0.5-0.3c-0.2,0-0.2,0-0.2-0.1c0-0.3,0-0.4,0.1-0.4c0.3-0.1,1-0.2,1.7-0.3
		c0.7-0.1,1.4-0.3,1.6-0.3c0.3-0.1,1.5-0.3,1.8-0.4c0.1,0,0.1,0,0.1,0.1c0,0.1-0.1,1.1-0.1,1.9c0,0.3,0,0.3-0.2,0.4
		c-0.2,0-0.2,0-0.3-0.2c-0.1-0.9-0.1-1-0.4-1.1c-0.3-0.1-1,0-1.3,0.1c-0.6,0.1-0.7,0.2-0.7,0.5L46.9,53.8z"/>
	<path class="st0" d="M52.2,49.9c-0.1-0.4-0.2-0.3-0.8-0.3c-0.1,0-0.1,0-0.1-0.3c0-0.3,0-0.3,0.2-0.3c0.2,0,0.8-0.1,1.5-0.2
		c0.5-0.1,1.1-0.2,1.4-0.3l0.2,0c0.1,0,0.1,0,0.1,0.2c0,0.3,0,0.4-0.2,0.4c-0.5,0.1-0.7,0.3-0.7,1c0,0.4,0,2,0,2.6
		c0,1.7,0,2.9,0,3.4c0,0.4,0.1,0.6,0.5,0.5l0.3-0.1c0.1,0,0.1,0,0.1,0.2c0,0.3,0,0.3-0.1,0.3c-0.3,0-1.2,0.2-1.7,0.3
		c-0.5,0.1-0.9,0.2-1.3,0.3c-0.1,0-0.1,0-0.1-0.3c0-0.2,0-0.2,0.3-0.3c0.5-0.1,0.6-0.5,0.7-1.3c0-1,0-2.7,0.1-3.7
		C52.3,51.6,52.3,50.3,52.2,49.9z"/>
	<path class="st0" d="M56.8,49.4c0-0.6-0.3-0.6-0.6-0.6c-0.2,0-0.2,0-0.2-0.3c0-0.3,0-0.3,0.2-0.3c0.2,0,0.6-0.1,1.1-0.1
		c0.5,0,1-0.1,1.1-0.1c0.5,0,1-0.1,1.4-0.2c0.5,0,0.9-0.1,1.3-0.1c0.1,0,0.1,0.1,0.1,0.2c0,0.2-0.1,0.6-0.1,1.2c0,0.2,0,0.5,0,0.7
		c0,0.1,0,0.2-0.2,0.2c-0.2,0-0.2,0-0.2-0.1c-0.1-1.1-0.1-1.4-1.6-1.2c-0.2,0-0.8,0.1-0.8,0.2c-0.1,0.1-0.1,0.4-0.1,0.6
		c0,0.7,0,1.6,0,2.4c1.8-0.1,1.9-0.3,1.9-0.9c0-0.4,0-0.4,0.2-0.4c0.1,0,0.2,0,0.2,0.1c0,0.2,0,1,0,1.2c0,0.2,0,1.3,0,1.5
		c0,0.2,0,0.2-0.2,0.2c-0.1,0-0.2,0-0.2-0.2c-0.1-0.5-0.1-0.7-0.4-0.8c-0.3-0.1-0.8-0.1-1.7,0c0,0.5,0,2.2,0.1,2.6
		c0,0.5,0,0.7,0.8,0.6c1.5-0.1,1.6-0.5,2-1.9c0-0.1,0.2-0.1,0.3-0.1c0.1,0,0.2,0.1,0.2,0.2c0,0.2-0.1,1.1-0.3,2.1
		c0,0.1-0.1,0.2-0.2,0.2c-0.2,0-0.7,0.1-1.3,0.1c-0.6,0.1-1.3,0.1-1.7,0.1c-0.4,0-0.7,0.1-1,0.1c-0.3,0-0.5,0.1-0.7,0.1
		c-0.1,0-0.1,0-0.1-0.2c0-0.3,0-0.3,0.2-0.3c0.5-0.1,0.5-0.4,0.6-0.9c0-0.6,0-2.3,0-3.1C56.9,50.4,56.8,49.8,56.8,49.4z"/>
	<path class="st0" d="M68.4,55.8c-0.8,0.2-1.6,0.3-2.4,0.2c-0.6,0-1.6,0-2,0c-0.4,0-1.3,0-1.5,0c-0.1,0-0.1-0.1-0.1-0.2
		c0-0.2,0-0.3,0.2-0.3c0.6-0.1,0.8-0.1,0.9-1.2c0.1-1,0.1-2.6,0.1-3.7c0-1.3,0-1.5,0-1.9c-0.1-0.6-0.3-0.6-0.9-0.7
		c-0.2,0-0.2,0-0.2-0.3c0-0.2,0-0.3,0.1-0.3c0.1,0,0.2,0,0.4,0c0.2,0,0.4,0,0.7,0c0.4,0,1.1,0,1.8,0c0.7,0,1.3,0,1.5,0
		c2.6,0,4,1.4,4,4.1C71,54.9,68.9,55.7,68.4,55.8z M68.3,48.7c-0.3-0.3-0.9-0.6-2-0.6c-0.9,0-1,0.2-1,0.7c0,0.4,0,3.2-0.1,3.8
		c0,0.4,0,1.9,0.1,2.2c0.1,0.4,0.5,0.5,1,0.5c0.6,0,1.1-0.1,1.6-0.4c0.9-0.6,1.3-1.7,1.3-3.3C69.4,51,69.3,49.5,68.3,48.7z"/>
	<path class="st0" d="M9.9,65c0.1,0,0.1,0.1,0.1,0.3c0.2,1,0.5,2.4,0.8,3.7c0.4,2,0.6,2.6,0.9,4c0.2,0.7,0.4,0.7,0.8,0.9
		c0.1,0,0.1,0.2,0.1,0.3c0,0.2,0,0.3-0.1,0.3c-0.5-0.1-1-0.2-1.5-0.3c-0.4-0.1-0.9-0.2-1.5-0.3c-0.2,0-0.2-0.1-0.2-0.3
		c0-0.2,0-0.3,0.2-0.3c0.3,0,0.6,0,0.7-0.3c0-0.2-0.3-1.8-0.4-2.2c-0.6-0.2-2.1-0.5-2.6-0.6c-0.2,0.6-0.7,1.6-0.7,1.9
		c0,0.4,0.3,0.6,0.6,0.7c0.2,0.1,0.2,0.1,0.2,0.4c0,0.1,0,0.3-0.1,0.2c-0.5-0.1-0.9-0.2-1.4-0.4C5.5,73,5,72.8,4.8,72.7
		c-0.1,0-0.2-0.1-0.1-0.3c0-0.2,0-0.3,0.2-0.3c0.4,0,0.6-0.3,1.6-2.2c0.4-0.9,1.6-3,2.1-4.1C8.9,65.1,8.9,65,9,65
		C9.6,65,9.8,65,9.9,65z M7.4,69.7c0.7,0.2,1.5,0.4,2.2,0.5c-0.3-1.5-0.6-3.2-0.7-3.7C8.4,67.4,7.8,68.8,7.4,69.7z"/>
	<path class="st0" d="M20.1,69.3c0-0.5-0.1-1.8-0.2-2.1c-0.1-0.3-0.3-0.4-0.9-0.4c-0.2,0-0.2,0-0.2-0.3c0-0.1,0-0.2,0.2-0.2
		c0.2,0,1.3,0,1.5,0c0.2,0,1.2-0.1,1.4-0.1c0.1,0,0.1,0,0.1,0.3c0,0.2,0,0.2-0.1,0.2c-0.7,0.1-1,0.3-1,1.4c0,0.6,0.1,3.5,0.1,5
		c0,0.3,0.1,1,0.1,1.4l0,0.1c0,0.1-0.1,0.1-0.5,0.3c-0.1,0-0.1,0-0.2-0.1c-0.7-1-1.1-1.4-2.4-2.8c-0.2-0.3-1.8-2.1-2.4-2.8
		c-0.1-0.1-0.3-0.3-0.5-0.6c0,0.5,0.1,1.5,0.1,1.9c0.2,3.3,0.2,3.7,0.7,3.9c0.1,0,0.6,0.1,0.7,0.2c0,0,0.1,0.2,0.1,0.3
		c0,0.2,0,0.2-0.1,0.2c-0.3,0-1-0.1-1.6-0.2c-0.3,0-0.8-0.1-1.4-0.2c-0.1,0-0.1,0-0.1-0.2c0-0.2,0.1-0.3,0.2-0.3
		c0.7-0.1,0.8-0.2,0.8-1.4c0-0.7-0.1-4.4-0.1-4.6c0-1-0.3-1.4-1.1-1.5c-0.1,0-0.2,0-0.2-0.3c0-0.2,0.1-0.3,0.2-0.3
		c0.2,0,0.7,0,1,0.1c0.4,0,0.7,0.1,1,0.1c0.1,0,0.2,0,0.3,0.1c0.2,0.5,0.8,1.1,1.6,2.1c0.5,0.6,2.6,2.9,3,3.4L20.1,69.3z"/>
	<path class="st0" d="M24.1,66.7c1.2-0.9,2.5-1.1,3-1.1c0.5,0,1.3,0,1.4,0c0.3,0,0.3,0,0.4,0c0.1,0,0.1,0,0.2-0.1c0.1,0,0.1,0,0.2,0
		c0.2,0,0.2,0,0.2,0.2c0,0.4,0,0.9,0.1,1.3c0,0.2,0.1,0.6,0.1,0.8c0,0.1,0,0.2-0.4,0.2c-0.1,0-0.1-0.1-0.2-0.3
		c-0.2-0.6-0.4-1.4-2.2-1.3c-2,0.2-2.7,1.8-2.6,3.8c0,0.4,0.1,1.7,0.8,2.6c0.7,0.8,1.7,0.9,2.3,0.8c0.3,0,1-0.1,1.1-0.4
		c0.1-0.2,0-0.9,0-1.2c-0.1-1.2-0.1-1.3-0.2-1.5c-0.1-0.1-0.2-0.1-0.9-0.1c-0.1,0-0.2,0-0.2-0.2c0-0.2,0-0.3,0.2-0.3
		c0.3,0,0.8,0,1.9-0.1c0.8-0.1,1.3-0.1,1.5-0.2c0.1,0,0.1,0,0.1,0.2c0,0.2,0,0.3-0.1,0.3C30,70.4,30,70.4,30,71.8
		c0,0.3,0.1,1,0.1,1.3c0,0.1,0.1,0.4,0.1,0.5c0,0.1-0.1,0.2-0.3,0.2c-0.7,0.2-1.7,0.4-2.6,0.4c-1.4,0.1-2.2,0-2.9-0.3
		c-1.2-0.6-1.7-2.1-1.8-3.3C22.4,69.2,23,67.5,24.1,66.7z"/>
	<path class="st0" d="M37.5,70.6c0.1-0.5,0.1-1,0.1-4.2c0-1.5-0.1-1.6-1-1.5c-0.2,0-0.2,0-0.2-0.2c0-0.2,0.1-0.2,0.2-0.2
		c0.2,0,0.9-0.2,1.6-0.4c0.4-0.1,0.9-0.2,1.1-0.3c0.1,0,0.1,0,0.1,0.2c0,0.3-0.1,0.3-0.2,0.3c-0.8,0.2-0.8,0.2-0.8,2.7
		c0,2.4,0,3.1-0.2,4c-0.5,1.7-1.8,2.3-2.9,2.4c-1.5,0.2-2.9-0.2-3.2-1.8c-0.1-0.5-0.3-1.1-0.3-3.7c0-1,0-1.4,0-1.7
		c0-0.6-0.3-0.6-0.7-0.6c-0.1,0-0.1,0-0.1-0.2c0-0.2,0-0.3,0.1-0.3c0.5-0.1,1.1-0.1,1.6-0.2c0.5-0.1,1.2-0.2,1.7-0.3
		c0.2,0,0.2,0,0.2,0.2c0,0.3,0,0.3-0.2,0.4c-0.5,0.1-0.8,0.2-0.9,0.7c-0.1,0.4,0,2.7,0,3.3c0,1.5,0.3,2.2,0.6,2.6
		c0.3,0.4,1,0.5,1.5,0.4C36.1,72.1,37.2,71.8,37.5,70.6z"/>
	<path class="st0" d="M45,63.8c0,0.5,0,0.9,0,1c0,0.2-0.3,0.3-0.4,0.3c-0.1,0-0.1,0-0.3-0.4c-0.2-0.5-0.6-1.2-1.8-1
		c-1.1,0.2-1.1,1.2-1,1.4c0.1,0.8,0.8,0.9,1.3,1c1.4,0.5,1.8,0.6,2.3,1c0.4,0.4,0.6,1,0.6,1.4c0.1,0.8-0.2,1.6-0.7,2.2
		c-0.3,0.3-0.7,0.8-1.7,1c-0.4,0.1-1.1,0.1-1.4,0.1c-0.6,0-0.9-0.1-1-0.1c-0.1,0-0.2,0.1-0.2,0.1c-0.1,0.1-0.2,0.3-0.3,0.3
		c-0.1,0-0.2,0-0.2-0.4c-0.1-0.4,0-1.9,0-2.1c0-0.3,0.1-0.4,0.3-0.5c0.1,0,0.1,0,0.3,0.3c0.2,0.6,0.3,0.9,0.5,1.1
		c0.4,0.4,0.8,0.5,1.4,0.4c1.1-0.2,1.4-1.3,1.3-1.7c-0.1-0.7-0.4-1-0.9-1.2c-1.5-0.5-1.8-0.6-2.3-1c-0.2-0.2-0.5-0.6-0.6-1.4
		c-0.1-1.3,0.5-2.5,2.4-2.8c0.5-0.1,0.9-0.2,1.6-0.2c0.1,0,0.2,0,0.2,0c0,0,0.1,0,0.1-0.1c0.1,0,0.1,0,0.1,0c0.1,0,0.1,0,0.1,0.1
		L45,63.8z"/>
	<path class="st0" d="M54.7,64.4c-0.3,0.3-0.6,0.5-0.8,0.6c0.3,0,0.9,0,1.4,0.5c0.3,0.3,0.6,0.8,0.6,1.5c0,2-1.6,2.8-2.7,3
		c-0.7,0.1-1.2,0.1-1.8,0.2c-0.6,0.1-1.5,0.3-1.7,0.3c-0.1,0-0.2-0.1-0.2-0.3c0-0.2,0-0.2,0.2-0.3c0.6-0.2,0.7-0.5,0.7-1.2
		c0-0.2,0-0.6,0-2l0-0.7c0-1.9,0-2.8,0-3.2c-0.1-0.5-0.2-0.5-0.7-0.5c-0.1,0-0.1,0-0.1-0.3c0-0.2,0-0.3,0.3-0.3
		c0.5-0.1,2.6-0.5,3.1-0.5c0.6-0.1,2.4-0.3,2.4,1.6C55.3,63.5,55.1,64,54.7,64.4z M52.8,65c0.9-0.3,0.9-1.4,0.9-1.7
		c0-1.5-0.9-1.4-1.4-1.3C52,62,52,62,52,62.1c0,0.2-0.1,2.7-0.1,3.1C52.4,65.2,52.6,65.1,52.8,65z M51.9,68.9c0,0.3,0.2,0.5,0.8,0.4
		c0.4,0,0.8-0.2,1.1-0.6c0.3-0.4,0.4-1,0.5-1.5c0-0.3,0-1.3-0.9-1.5c-0.4-0.1-0.9,0-1.4,0.1C51.9,66.4,51.9,68.6,51.9,68.9z"/>
	<path class="st0" d="M57.4,61.9c0-0.6-0.2-0.6-0.6-0.6c-0.2,0-0.2,0-0.2-0.2c0-0.3,0-0.3,0.2-0.3c0.2,0,0.6-0.1,1.1-0.1
		c0.5,0,0.9-0.1,1.1-0.1c0.5-0.1,1-0.1,1.4-0.2c0.5-0.1,0.9-0.1,1.3-0.2c0.1,0,0.1,0.1,0.1,0.2c0,0.2-0.1,0.5-0.1,1.1
		c0,0.2,0,0.5,0,0.7c0,0.1,0,0.2-0.2,0.2c-0.2,0-0.2,0-0.2-0.1c-0.1-1.1-0.1-1.4-1.6-1.2c-0.2,0-0.8,0.1-0.9,0.2
		c-0.1,0.1-0.1,0.4-0.1,0.6c0,0.8,0,1.6,0,2.4c1.8-0.2,1.9-0.3,2-1c0-0.4,0-0.4,0.2-0.4c0.1,0,0.2,0,0.2,0.1c0,0.2,0,1,0,1.2
		c0,0.2,0,1.3,0,1.5c0,0.2,0,0.2-0.2,0.2c-0.1,0-0.2,0-0.2-0.2c-0.1-0.5-0.1-0.7-0.4-0.8c-0.3-0.1-0.8,0-1.7,0.1c0,0.5,0,2.2,0,2.6
		c0,0.5,0,0.7,0.8,0.6c1.6-0.2,1.6-0.6,2-1.9c0-0.1,0.2-0.1,0.3-0.1c0.1,0,0.2,0.1,0.2,0.2c0,0.2-0.1,1.1-0.4,2.2
		c0,0.1-0.1,0.2-0.2,0.2c-0.2,0-0.7,0.1-1.3,0.1c-0.6,0.1-1.3,0.1-1.7,0.2c-0.4,0-0.7,0.1-1,0.1c-0.3,0-0.5,0.1-0.7,0.1
		c-0.1,0-0.1,0-0.1-0.2c0-0.3,0-0.3,0.3-0.3c0.5-0.1,0.5-0.5,0.6-1c0-0.6,0-2.3,0-3.1C57.5,62.9,57.4,62.3,57.4,61.9z"/>
	<path class="st0" d="M63.9,61.2c0-0.6-0.3-0.7-0.6-0.7c-0.2,0-0.2,0-0.2-0.3c0-0.3,0-0.3,0.2-0.3c0.2,0,0.6,0,1.1,0
		c0.5,0,0.9,0,1.1,0c0.5,0,1,0,1.4,0c0.5,0,0.9,0,1.3,0c0.1,0,0.1,0.1,0.1,0.2c0,0.2-0.1,0.5-0.1,1.1c0,0.2,0,0.5,0,0.7
		c0,0.1,0,0.2-0.2,0.2c-0.2,0-0.2,0-0.2-0.2c-0.1-1.1-0.1-1.4-1.6-1.4c-0.2,0-0.8,0-0.8,0.1c-0.1,0.1-0.1,0.4-0.1,0.6
		c0,0.8,0,1.6,0,2.4c1.8,0,1.9-0.1,2-0.7c0-0.4,0-0.4,0.2-0.4c0.1,0,0.2,0,0.2,0.1c0,0.2,0,1,0,1.2c0,0.2,0,1.3,0,1.5
		c0,0.2,0,0.2-0.2,0.2c-0.1,0-0.2,0-0.2-0.2c-0.1-0.5-0.1-0.8-0.4-0.9c-0.3-0.1-0.8-0.1-1.7-0.1c0,0.5,0,2.2,0.1,2.6
		c0,0.5,0,0.7,0.8,0.7c1.6,0,1.6-0.4,2-1.7c0-0.1,0.2-0.1,0.3-0.1c0.1,0,0.2,0.1,0.2,0.2c0,0.2-0.1,1.1-0.3,2.1
		c0,0.1-0.1,0.2-0.2,0.2c-0.2,0-0.7,0-1.3,0c-0.6,0-1.3,0-1.7,0c-0.4,0-0.7,0-1,0c-0.3,0-0.5,0-0.7,0c-0.1,0-0.1,0-0.1-0.3
		c0-0.3,0-0.3,0.3-0.3c0.5-0.1,0.5-0.4,0.6-0.9c0-0.6,0-2.3,0-3.1C63.9,62.2,63.9,61.6,63.9,61.2z"/>
	<path class="st0" d="M71.8,64.1c0.3,0,1.4,0.1,1.6-0.1c0.1-0.1,0.2-0.3,0.2-0.7c0-0.2,0-0.2,0.2-0.2c0.2,0,0.2,0,0.2,0.2
		c0,0.2,0,0.8,0,1.3c0,0.4,0,1.1,0,1.3C74,66,74,66,73.8,66c-0.2,0-0.2,0-0.2-0.2c-0.1-0.9-0.1-1-1.8-1.1c0,1.8,0,2,0,2.3
		c0,0.8,0,1.1,0.5,1.2c0.2,0,0.3,0,0.4,0c0.1,0,0.1,0.1,0.1,0.2c0,0.2,0,0.3-0.1,0.3c-0.3,0-1.2-0.1-1.6-0.1c-0.7,0-1.2-0.1-1.4-0.1
		c-0.1,0-0.1-0.1-0.1-0.3c0-0.2,0-0.2,0.2-0.3c0.5-0.1,0.6-0.3,0.6-1.4c0-0.7,0-2.8,0-3.8c0-1,0-1.6-0.1-1.9
		c-0.1-0.3-0.3-0.4-0.5-0.4c-0.2,0-0.2,0-0.2-0.2c0-0.4,0-0.4,0.1-0.4c0.3,0,0.9,0.1,1.6,0.1c0.7,0.1,1.4,0.1,1.6,0.1
		c0.3,0,1.5,0.1,1.7,0.1c0.1,0,0.1,0,0.1,0.1c0,0.1-0.1,1.1-0.2,1.9c0,0.3,0,0.3-0.2,0.3c-0.2,0-0.2-0.1-0.3-0.3
		c-0.1-1-0.1-1.1-0.4-1.2c-0.3-0.2-0.9-0.3-1.3-0.3c-0.6,0-0.7,0-0.7,0.3V64.1z"/>
</g>
</svg>
