<?xml version="1.0" encoding="utf-8"?>
<!-- Generator: Adobe Illustrator 28.0.0, SVG Export Plug-In . SVG Version: 6.00 Build 0)  -->
<svg version="1.1" id="Layer_1" xmlns="http://www.w3.org/2000/svg" xmlns:xlink="http://www.w3.org/1999/xlink" x="0px" y="0px"
	 viewBox="0 0 612 66.1" style="enable-background:new 0 0 612 66.1;" xml:space="preserve">
<style type="text/css">
	.st0{fill:#FFFFFF;}
</style>
<g>
	<g>
		<g>
			<g>
				<path class="st0" d="M0,38.4h3.7V19H0v-2.9h11.1V19H7.4v19.4h3.7v2.9H0V38.4z"/>
			</g>
			<g>
				<path class="st0" d="M13.7,38.5h3.2V26.5h-3.6v-2.9h3.6v-5.9c0-4.4,2.7-6.1,6.4-6.1c1.1,0,2.2,0.2,3.3,0.3v2.7
					c-0.7-0.1-1.6-0.2-2.4-0.2c-2.3,0-3.7,0.8-3.7,3.4v5.8h4.8v2.9h-4.8v12.1h3.8v2.8H13.7V38.5z"/>
			</g>
			<g>
				<g>
					<path class="st0" d="M35.7,38.5h3V26.4h-3v-2.8h6.6v14.9h3v2.8h-9.5V38.5z M40.2,14.9c1.4,0,2.6,1.2,2.6,2.6S41.6,20,40.2,20
						c-1.5,0-2.6-1.2-2.6-2.6S38.7,14.9,40.2,14.9z"/>
				</g>
				<g>
					<path class="st0" d="M49.2,36.6V26.5h-3.1v-2.9h3.1V19h3.5v4.6H58v2.9h-5.3v9.9c0,2,1,2.7,2.8,2.7c1.1,0,2-0.2,2.7-0.5v2.7
						c-1.1,0.3-2.2,0.6-3.8,0.6C51.3,41.8,49.2,40.4,49.2,36.6z"/>
				</g>
				<g>
					<path class="st0" d="M65.6,17.4c0,2.1-1.9,5.1-3.9,6.9l-1.5-1.2c1.1-1.3,1.9-2.8,2.2-4c-1-0.2-1.6-1-1.6-2c0-1.3,1-2.4,2.4-2.4
						S65.6,15.9,65.6,17.4z"/>
				</g>
				<g>
					<path class="st0" d="M67.2,40.8v-4.7h2.9v2.5c1,0.3,2.6,0.5,3.8,0.5c2.3,0,3.8-0.8,3.8-2.3c0-3.9-10.2-1.9-10.2-8.5
						c0-3.1,2.3-5.2,6.8-5.2c2.2,0,4.6,0.5,6,1v4.7h-2.9v-2.7c-0.9-0.2-2.2-0.3-3.1-0.3c-2.4,0-3.4,1-3.4,2.2c0,4,10.2,1.8,10.2,8.6
						c0,2.9-1.9,5.2-7.1,5.2C71.6,41.8,68.8,41.3,67.2,40.8z"/>
				</g>
			</g>
			<g>
				<path class="st0" d="M92,38.5h3V26.4h-3v-2.8h6.5v2.5c1.9-1.7,4.2-2.9,6.8-2.9c3.2,0,5.2,1.9,5.2,5.6v9.7h3v2.8H104v-2.8h3v-9.4
					c0-1.9-0.7-3.2-2.8-3.2c-2.1,0-4.1,1.3-5.7,2.6v10h3v2.8H92V38.5z"/>
			</g>
			<g>
				<path class="st0" d="M115.2,32.5c0-5.6,3.5-9.3,9-9.3c5.6,0,9,3.7,9,9.3c0,5.7-3.5,9.3-9,9.3C118.7,41.8,115.2,38.1,115.2,32.5z
					 M129.6,32.5c0-3.9-1.9-6.6-5.4-6.6c-3.5,0-5.4,2.7-5.4,6.6c0,3.9,1.9,6.6,5.4,6.6C127.8,39.1,129.6,36.3,129.6,32.5z"/>
			</g>
			<g>
				<path class="st0" d="M137.9,36.6V26.5h-3.1v-2.9h3.1V19h3.5v4.6h5.3v2.9h-5.3v9.9c0,2,1,2.7,2.8,2.7c1.1,0,2-0.2,2.7-0.5v2.7
					c-1.1,0.3-2.2,0.6-3.8,0.6C140,41.8,137.9,40.4,137.9,36.6z"/>
			</g>
		</g>
		<g>
			<path class="st0" d="M337.8,39.6c0,2.1-1.9,5.2-3.9,6.9l-1.5-1.2c1.1-1.3,1.9-2.7,2.2-3.9c-1-0.2-1.6-1-1.6-2
				c0-1.3,1-2.3,2.4-2.3S337.8,38.1,337.8,39.6z"/>
		</g>
		<g>
			<g>
				<path class="st0" d="M200.5,17.8c-1.3,0-2.1-1.7-2.1-3.2c0-1.2,2.4-3.4,2.9-3.4c0.1,0-1.4,1.9-1.1,2.3c3.4,0,11.4-4.5,11.4-8.6
					c0-2.3-2-3.6-5.1-3.6c-15.5,0-42.6,26.3-41.5,40.3c0.4,4.2,3.5,5.4,7.4,5.4c9.5,0,24.9-8.5,36.8-18.2c0.1-0.1,0.6,0.2,0.4,0.3
					c-8.9,8.7-27.8,21.4-38.9,21.2c-5.4-0.1-10.1-2.5-10.4-8.6C159.2,24.1,189,0,205.9,0c4.4,0,7.5,1.9,7.5,5.7
					C213.4,10.8,205.4,17.8,200.5,17.8z"/>
			</g>
			<g>
				<path class="st0" d="M205.7,38.5c-0.1,0.6,0.4,1,1.5,1c3.7,0,12.9-7,18-11.2c0.2-0.1,0.5,0.2,0.4,0.3
					c-3.8,3.5-13.8,13.1-20.5,13.1c-1.6,0-3.6-1.8-3.6-3.2c0-1.2,0.3-2.2,0.7-3.3c1.2-2.9,3.8-6,6.9-8.7c4.2-3.5,8.7-5,10.8-5
					c0.8,0,3.1,1.2,3.1,2.6c0,3.1-9.7,10.4-15.3,10.5C206.8,35.6,205.8,37.2,205.7,38.5z M208.3,33.5c4.4-0.5,12.7-8.7,13-10.6
					C215.8,24.8,210,30.9,208.3,33.5z"/>
			</g>
			<g>
				<path class="st0" d="M230.1,21.8c0.3-0.2,0.5-0.3,0.7-0.3c1.2,0,3.1,2,3.1,3.2c0,0.2-0.2-0.1-0.6-0.1c-0.8-0.1-2.5,1.9-4,3.9
					c-1.4,1.8-3.1,4.2-4.2,6c2.7-3.5,7.7-7.7,12-10.8c2-1.4,3.5-2.3,4.5-2.4c0.6-0.1,2.6,2.1,2.3,2.5c-1.1,1.2-5.3,4.8-6.9,8.8
					c2.4-0.2,5.9-2.5,9-5.2c0-0.1,0.4-0.1,0.4,0c-0.9,1.2-6.9,6.8-10.4,6.8c-0.9,0-2.4-1.8-2.4-2.4c0-1.4,1.6-4.3,2.9-5.8
					c-4.6,2.7-7,4.7-10.4,8.5c-2.6,2.8-5.6,7.2-4.5,7.7c-1.5,0.4-2.7-1.2-3-2.6c-0.1-0.5,0.2-1.4,0.8-2.6c1.3-2.9,3.5-6.3,5.5-9.2
					C226.6,25.4,228.8,22.8,230.1,21.8z"/>
			</g>
			<g>
				<path class="st0" d="M261.4,5.3c0.8-0.6,1.4-1,1.9-1c2.8-0.2,4.8,2.8,3.9,2.2c-1.6-0.8-4.6,3.3-6.8,6.1c8.1-0.4,18.7,0,25.9,1.5
					c0.4,0.1,0.6,0.2,0,0.2c-10-0.9-19.2-0.8-27.6,0.5c-1.9,2.3-3.5,4.8-5.5,7.8c-4.4,6.6-8.2,13-9.4,16.3c2.2,0.3,10.5-8,13.5-10.7
					c0.3-0.3,0.5,0.2,0.4,0.3c-2.5,2.8-11.2,12-14.2,13.1c-0.7,0.3-1.2,0.1-1.6-0.2c-0.4-0.2-1.5-1.3-1.8-2c0-0.1-0.2-0.2-0.2-0.8
					c0-1.5,2.3-6.4,8.5-16c1.4-2.1,2.8-4.3,4.7-6.7c-4.8,1-7.8,3.4-6.4,4.1c-0.8,0-2.5-1-2.7-2.6c-0.2-2.3,5.3-3.7,11-4.3
					C258.8,8,260.2,6.3,261.4,5.3z"/>
			</g>
			<g>
				<path class="st0" d="M252.9,41.6c-0.8-0.3-2.1-1.5-2.1-2.4c0-2.9,7.3-13.9,10.5-16.5c0.3-0.3,0.6-0.3,0.8-0.3
					c1.2,0,3.2,2,3.2,3.3c0,0.2-0.3-0.1-0.7-0.1c-2.1-0.2-9,11.3-9.6,13.3c3.1-0.8,10.4-7.8,13.5-10.8c0.4-0.3,0.6,0.2,0.5,0.3
					c-4.4,4.7-12.4,12.9-15.5,13.2C253.3,41.7,253.2,41.7,252.9,41.6z M269.8,16.4c0.5,0.5,0.8,1.3,0.6,1.3c-0.1,0-0.5-0.2-1.1,0.1
					c-0.9,0.4-3.2,2.4-3.8,3.3c-0.7,0.9-1.8-0.2-1.8-1.1c-0.1-1.5,1.9-4.7,3.2-5.1C268,14.6,269.1,15.6,269.8,16.4z"/>
			</g>
			<g>
				<path class="st0" d="M284.9,5.3c0.8-0.6,1.5-1,1.9-1c2.9-0.2,4.9,2.8,3.9,2.2c-1.7-0.8-5,3.9-7.1,6.6c-3.8,4.8-7.4,10.2-13,18.9
					l0.1,0.1c3.7-1.2,10.9-4.9,13.4-7c0-0.1,0.1-0.2,0.2-0.2c0.2,0,0.3,0.2,0.3,0.3c0,0,0,0.1,0,0.1c-1.6,1.5-6.4,4.6-10.6,6.8
					c-1,0.5-2.7,1.4-3.4,1.5c0.4,1,0.7,3,0.7,5c0,1-0.1,2-0.3,2.9C268.1,56,255.6,66,253.4,66.1h-0.2c-1,0.1-2.2-1.7-2.3-2.5
					c-0.2-2.8,5.7-16,13.9-29.9c-1.4-1.1,0.6-3.8,2.1-3.8c4.8-7.7,9.9-15,13.7-19.9C282.2,8,283.7,6.3,284.9,5.3z M254.8,62.8
					c5.9-4.4,13.6-12.3,15.4-22.9c0.1-0.5,0.2-1.1,0.2-1.8c0-1.6-0.3-3.5-1-4.3c-5.8,9.3-12.8,23.3-15,28.5
					c-0.2,0.4-0.2,0.7-0.1,0.7C254.4,63.1,254.5,63,254.8,62.8z"/>
			</g>
			<g>
				<path class="st0" d="M275.8,41.6c-0.8-0.3-2.1-1.5-2.1-2.4c0-2.9,7.3-13.9,10.5-16.5c0.3-0.3,0.6-0.3,0.8-0.3
					c1.2,0,3.2,2,3.2,3.3c0,0.2-0.3-0.1-0.7-0.1c-2.1-0.2-9,11.3-9.6,13.3c3.1-0.8,10.4-7.8,13.5-10.8c0.4-0.3,0.6,0.2,0.5,0.3
					c-4.4,4.7-12.4,12.9-15.5,13.2C276.2,41.7,276,41.7,275.8,41.6z M292.6,16.4c0.5,0.5,0.8,1.3,0.6,1.3c-0.1,0-0.5-0.2-1.1,0.1
					c-0.9,0.4-3.2,2.4-3.8,3.3c-0.7,0.9-1.8-0.2-1.8-1.1c-0.1-1.5,1.9-4.7,3.2-5.1C290.8,14.6,292,15.6,292.6,16.4z"/>
			</g>
			<g>
				<path class="st0" d="M289.5,38.5c0,0.6,0.4,1,1.5,1c3.7,0,12.9-7,18-11.2c0.2-0.1,0.5,0.2,0.4,0.3c-3.8,3.5-13.8,13.1-20.5,13.1
					c-1.6,0-3.6-1.8-3.6-3.2c0-1.2,0.3-2.2,0.7-3.3c1.2-2.9,3.8-6,6.9-8.7c4.2-3.5,8.7-5,10.8-5c0.8,0,3.1,1.2,3.1,2.6
					c0,3.1-9.7,10.4-15.3,10.5C290.6,35.6,289.7,37.2,289.5,38.5z M292.2,33.5c4.4-0.5,12.7-8.7,13-10.6
					C299.7,24.8,293.9,30.9,292.2,33.5z"/>
			</g>
			<g>
				<path class="st0" d="M324.5,22.3c3.1-4.8,6.2-9,8.7-12.4c1.6-2,3-3.6,4.2-4.6c0.8-0.6,1.4-1,1.9-1c2.8-0.2,4.8,2.8,3.9,2.2
					c-1.7-0.8-5.1,3.9-7.2,6.6c-2.2,2.8-4.3,5.7-6.7,9.4c-4.4,6.6-8.5,13.3-9.7,16.5c2.7-0.2,11.5-8.8,13.7-10.9
					c0.3-0.3,0.6,0.2,0.4,0.3c-2.4,2.7-11.4,12.2-14.3,13.1c-0.6,0.2-1.2,0.1-1.7-0.2c-0.8-0.5-1.9-1.5-1.9-2.6c0-1,1.1-3.6,3.6-8.2
					c-1.8,1.4-12.1,11.1-14.8,11.1c-0.9,0-2.5-2.3-2.5-3.4c0-2.7,4.5-9.2,9.9-12.6c3.9-2.6,7.3-4.2,10.3-4.2
					C323.2,21.4,324,21.8,324.5,22.3z M324,23c-0.7-0.2-1.4-0.2-2.1,0c-2.1,0.6-5.4,3.1-8.2,5.8c-4.5,4.3-7.9,9.6-7.5,9.8
					c0.6,0.4,8.7-5.2,14.6-10.4L324,23z"/>
			</g>
			<g>
				<path class="st0" d="M189.5,59.5c0,0-16.5-9.3,53.8-11.8c0,0,43.7-2.4,80.9,0.1c0,0-37.2-5.8-110.4-2.1
					C213.9,45.7,161.3,50.9,189.5,59.5z"/>
			</g>
		</g>
	</g>
	<g>
		<g>
			<path class="st0" d="M353.7,38.5h3V26.4h-3v-2.8h6.6v14.9h3v2.8h-9.5V38.5z M358.2,14.9c1.4,0,2.6,1.2,2.6,2.6s-1.2,2.6-2.6,2.6
				c-1.5,0-2.6-1.2-2.6-2.6S356.7,14.9,358.2,14.9z"/>
		</g>
		<g>
			<path class="st0" d="M365.7,36.6V26.5h-3.1v-2.9h3.1V19h3.5v4.6h5.3v2.9h-5.3v9.9c0,2,1,2.7,2.8,2.7c1.1,0,2-0.2,2.7-0.5v2.7
				c-1.1,0.3-2.2,0.6-3.8,0.6C367.8,41.8,365.7,40.4,365.7,36.6z"/>
		</g>
		<g>
			<path class="st0" d="M382.1,17.4c0,2.1-1.9,5.1-3.9,6.9l-1.5-1.2c1.1-1.3,1.9-2.8,2.2-4c-1-0.2-1.6-1-1.6-2c0-1.3,1-2.4,2.4-2.4
				C381.2,14.8,382.1,15.9,382.1,17.4z"/>
		</g>
		<g>
			<path class="st0" d="M383.7,40.8v-4.7h2.9v2.5c1,0.3,2.6,0.5,3.8,0.5c2.3,0,3.8-0.8,3.8-2.3c0-3.9-10.2-1.9-10.2-8.5
				c0-3.1,2.3-5.2,6.8-5.2c2.2,0,4.6,0.5,6,1v4.7h-2.9v-2.7c-0.9-0.2-2.2-0.3-3.1-0.3c-2.4,0-3.4,1-3.4,2.2c0,4,10.2,1.8,10.2,8.6
				c0,2.9-1.9,5.2-7.1,5.2C388.1,41.8,385.4,41.3,383.7,40.8z"/>
		</g>
	</g>
	<g>
		<path class="st0" d="M408.5,38.5h3V26.4h-3v-2.8h6.5v2.5c1.9-1.7,4.2-2.9,6.8-2.9c3.2,0,5.2,1.9,5.2,5.6v9.7h3v2.8h-9.6v-2.8h3
			v-9.4c0-1.9-0.7-3.2-2.8-3.2c-2.1,0-4.1,1.3-5.7,2.6v10h3v2.8h-9.5V38.5z"/>
	</g>
	<g>
		<path class="st0" d="M431.7,32.5c0-5.6,3.5-9.3,9-9.3s9,3.7,9,9.3c0,5.7-3.5,9.3-9,9.3S431.7,38.1,431.7,32.5z M446.2,32.5
			c0-3.9-1.9-6.6-5.4-6.6s-5.4,2.7-5.4,6.6c0,3.9,1.9,6.6,5.4,6.6S446.2,36.3,446.2,32.5z"/>
	</g>
	<g>
		<path class="st0" d="M454.5,36.6V26.5h-3.1v-2.9h3.1V19h3.5v4.6h5.3v2.9H458v9.9c0,2,1,2.7,2.8,2.7c1.1,0,2-0.2,2.7-0.5v2.7
			c-1.1,0.3-2.2,0.6-3.8,0.6C456.5,41.8,454.5,40.4,454.5,36.6z"/>
	</g>
	<g>
		<path class="st0" d="M476,36.6V26.5h-3.1v-2.9h3.1V19h3.5v4.6h5.3v2.9h-5.3v9.9c0,2,1,2.7,2.8,2.7c1.1,0,2-0.2,2.7-0.5v2.7
			c-1.1,0.3-2.2,0.6-3.8,0.6C478.1,41.8,476,40.4,476,36.6z"/>
	</g>
	<g>
		<path class="st0" d="M486.1,38.5h3V14.8h-3V12h6.6v14c1.9-1.6,4.1-2.9,6.8-2.9c3.2,0,5.2,1.9,5.2,5.6v9.7h3v2.8h-9.6v-2.8h3v-9.4
			c0-1.9-0.7-3.2-2.8-3.2c-2.1,0-4.1,1.3-5.7,2.6v10h3v2.8h-9.6V38.5z"/>
	</g>
	<g>
		<path class="st0" d="M509.3,32.5c0-5.5,3.2-9.4,8.5-9.4c5.6,0,7.9,4.3,7.9,8.8c0,0.5,0,1-0.1,1.6h-12.7c0.3,3.5,2.3,5.5,6,5.5
			c2.3,0,4.3-0.8,5.8-1.7v2.8c-1.5,0.9-3.6,1.7-6.3,1.7C512.4,41.8,509.3,37.9,509.3,32.5z M512.8,30.9h9.5
			c-0.2-2.5-1.3-5.1-4.5-5.1C514.7,25.8,513.2,28.1,512.8,30.9z"/>
	</g>
	<g>
		<path class="st0" d="M537.8,41.1V14.8h-3V12h6.6v12.7c1.5-0.9,3.2-1.6,5.3-1.6c4.9,0,7.8,3.5,7.8,9c0,6.4-4,9.7-10.3,9.7
			C542,41.8,539.5,41.5,537.8,41.1z M550.8,32.1c0-3.5-1.5-6.3-5-6.3c-1.7,0-3.3,0.7-4.5,1.5v11.4c0.7,0.1,1.7,0.2,2.6,0.2
			C548.5,39.1,550.8,36.5,550.8,32.1z"/>
	</g>
	<g>
		<path class="st0" d="M556.8,32.5c0-5.5,3.2-9.4,8.5-9.4c5.6,0,7.9,4.3,7.9,8.8c0,0.5,0,1-0.1,1.6h-12.7c0.3,3.5,2.3,5.5,6,5.5
			c2.3,0,4.3-0.8,5.8-1.7v2.8c-1.5,0.9-3.6,1.7-6.3,1.7C559.9,41.8,556.8,37.9,556.8,32.5z M560.4,30.9h9.5
			c-0.2-2.5-1.3-5.1-4.5-5.1C562.3,25.8,560.7,28.1,560.4,30.9z"/>
	</g>
	<g>
		<path class="st0" d="M575.5,40.8v-4.7h2.9v2.5c1,0.3,2.6,0.5,3.8,0.5c2.3,0,3.8-0.8,3.8-2.3c0-3.9-10.2-1.9-10.2-8.5
			c0-3.1,2.3-5.2,6.8-5.2c2.2,0,4.6,0.5,6,1v4.7h-2.9v-2.7c-0.9-0.2-2.2-0.3-3.1-0.3c-2.4,0-3.4,1-3.4,2.2c0,4,10.2,1.8,10.2,8.6
			c0,2.9-1.9,5.2-7.1,5.2C579.9,41.8,577.2,41.3,575.5,40.8z"/>
	</g>
	<g>
		<path class="st0" d="M594,36.6V26.5h-3.1v-2.9h3.1V19h3.5v4.6h5.3v2.9h-5.3v9.9c0,2,1,2.7,2.8,2.7c1.1,0,2-0.2,2.7-0.5v2.7
			c-1.1,0.3-2.2,0.6-3.8,0.6C596.1,41.8,594,40.4,594,36.6z"/>
	</g>
	<g>
		<path class="st0" d="M605.4,39.4c0-1.3,1-2.4,2.3-2.4c1.3,0,2.3,1.1,2.3,2.4c0,1.3-1,2.3-2.3,2.3
			C606.4,41.7,605.4,40.7,605.4,39.4z"/>
	</g>
	<g>
		<path class="st0" d="M606.7,25.1c0-1.7,1.3-3,3-3c1.7,0,3,1.3,3,3c0,1.7-1.4,3-3,3C608.1,28.1,606.7,26.8,606.7,25.1z M612.2,25.1
			c0-1.4-1.1-2.5-2.5-2.5c-1.4,0-2.5,1.1-2.5,2.5c0,1.4,1.1,2.5,2.5,2.5C611.1,27.6,612.2,26.5,612.2,25.1z M608.3,26h0.4v-1.8h-0.4
			v-0.5h1.5c0.8,0,1.2,0.4,1.2,0.9c0,0.4-0.3,0.7-0.6,0.8l0.4,0.7h0.4v0.5h-0.9l-0.6-1h-0.5V26h0.4v0.5h-1.5V26z M609.9,25
			c0.3,0,0.5-0.2,0.5-0.4c0-0.2-0.2-0.4-0.5-0.4h-0.5V25H609.9z"/>
	</g>
</g>
</svg>
